<?xml version="1.0" encoding="UTF-8" standalone="no"?>
<!-- Created with Inkscape (http://www.inkscape.org/) -->

<svg
   xmlns:dc="http://purl.org/dc/elements/1.1/"
   xmlns:cc="http://creativecommons.org/ns#"
   xmlns:rdf="http://www.w3.org/1999/02/22-rdf-syntax-ns#"
   xmlns:svg="http://www.w3.org/2000/svg"
   xmlns="http://www.w3.org/2000/svg"
   xmlns:sodipodi="http://sodipodi.sourceforge.net/DTD/sodipodi-0.dtd"
   xmlns:inkscape="http://www.inkscape.org/namespaces/inkscape"
   version="1.1"
   viewBox="0 0 150.09941 150.09941"
   id="svg108"
   sodipodi:docname="logo-muzyka.svg"
   inkscape:version="0.92.0 r"
   inkscape:export-filename="/home/zombiak/konkursy-legnica/konkursy-legnica.github.io/img/logo-muzyka.png"
   inkscape:export-xdpi="206.73801"
   inkscape:export-ydpi="206.73801">
  <defs
     id="defs112" />
  <sodipodi:namedview
     pagecolor="#000000"
     bordercolor="#666666"
     borderopacity="1"
     objecttolerance="10"
     gridtolerance="10"
     guidetolerance="10"
     inkscape:pageopacity="0"
     inkscape:pageshadow="2"
     inkscape:window-width="1280"
     inkscape:window-height="995"
     id="namedview110"
     showgrid="false"
     inkscape:zoom="1.5722913"
     inkscape:cx="-15.115664"
     inkscape:cy="15.204951"
     inkscape:window-x="0"
     inkscape:window-y="0"
     inkscape:window-maximized="1"
     inkscape:current-layer="svg108" />
  <metadata
     id="metadata2">
    <rdf:RDF>
      <cc:Work
         rdf:about="">
        <dc:format>image/svg+xml</dc:format>
        <dc:type
           rdf:resource="http://purl.org/dc/dcmitype/StillImage" />
        <dc:title></dc:title>
      </cc:Work>
    </rdf:RDF>
  </metadata>
  <path
     style="fill:none;stroke:#c0c0c0;stroke-width:1.50399995"
     inkscape:connector-curvature="0"
     id="path4"
     d="M 61.22,126.69 A 53.454,53.454 0 0 1 23.422,61.223 53.454,53.454 0 0 1 88.889,23.425 53.454,53.454 0 0 1 126.687,88.892 53.454,53.454 0 0 1 61.22,126.69 Z" />
  <g
     style="fill:#c0c0c0;stroke-width:0.26458001"
     id="g84"
     aria-label="MUZYKA WYKLĘTA ~ ROK MJR DYBOWSKIEGO ~ LEGNICA"
     transform="rotate(1.6100608,249.25197,12606.189)">
    <path
       inkscape:connector-curvature="0"
       id="path6"
       d="m -309.81,133.27 -0.30594,0.38657 -0.69293,-0.54838 -3.6944,4.6681 0.73304,0.58013 -0.30882,0.39023 -1.5864,-1.2555 1.157,-5.3891 -4.9791,2.3643 -1.488,-1.1776 0.30883,-0.39022 0.72574,0.57435 3.6944,-4.6681 -0.69657,-0.55127 0.30594,-0.38658 2.1298,1.6856 -0.30594,0.38657 -0.69292,-0.54838 -3.3307,4.2086 4.8718,-2.3187 0.51422,0.40695 -1.1373,5.2742 3.3307,-4.2086 -0.69293,-0.54839 0.30594,-0.38658 z" />
    <path
       inkscape:connector-curvature="0"
       id="path8"
       d="m -322.64,130.89 0.6045,0.65092 -0.36465,0.33864 -1.8483,-1.9902 0.36465,-0.33865 0.6045,0.65092 2.6309,-2.4433 q 0.97467,-0.90517 1.0654,-1.5797 0.0876,-0.67798 -0.63717,-1.4584 -0.72477,-0.78041 -1.4042,-0.73972 -0.6826,0.0373 -1.6573,0.94246 l -2.6309,2.4433 0.60449,0.65091 -0.36465,0.33865 -1.5951,-1.7176 0.36465,-0.33865 0.60133,0.64751 2.6991,-2.5066 q 1.1621,-1.0792 2.0572,-1.079 0.89513,1.8e-4 1.8889,1.0703 0.99378,1.0701 0.93395,1.9762 -0.063,0.90267 -1.2183,1.9756 z" />
    <path
       inkscape:connector-curvature="0"
       id="path10"
       d="m -322.7,121.21 -0.27194,0.1954 -7.4264,0.0101 2.0951,2.9158 0.84226,-0.6052 0.33381,0.46456 -1.3068,0.93901 -3.2024,-4.4568 0.27194,-0.19541 7.4264,-0.0101 -2.2905,-3.1878 -0.78939,0.5672 -0.33109,-0.46079 1.254,-0.90101 z" />
    <path
       inkscape:connector-curvature="0"
       id="path12"
       d="m -327.19,114.6 -0.42958,0.24188 -0.43583,-0.77406 -2.1763,1.2253 -1.9592,3.5637 0.31946,0.56737 -0.43364,0.24416 -1.2664,-2.2492 0.43364,-0.24416 0.39703,0.70516 1.5967,-2.8898 -3.2989,-0.13342 0.38335,0.68084 -0.43363,0.24416 -0.99031,-1.7588 0.43363,-0.24416 0.32174,0.57143 3.9586,0.1676 2.2533,-1.2687 -0.43583,-0.77406 0.42958,-0.24187 z" />
    <path
       inkscape:connector-curvature="0"
       id="path14"
       d="m -329.61,110.21 -0.45381,0.19262 -0.34525,-0.81344 -5.48,2.3259 0.34525,0.81343 -0.4581,0.19443 -1.0594,-2.496 0.45809,-0.19443 0.34525,0.81343 2.4189,-1.0266 -3.5873,-1.7262 0.29437,0.69355 -0.45809,0.19443 -0.90128,-2.1235 0.45809,-0.19443 0.30527,0.71924 3.5751,1.7212 1.7668,-4.3725 -0.30891,-0.7278 0.45381,-0.19261 0.63053,1.4856 -1.7489,4.3194 2.5816,-1.0957 -0.34524,-0.81344 0.45381,-0.19261 z" />
    <path
       inkscape:connector-curvature="0"
       id="path16"
       d="m -335,103.36 -0.7151,-2.4463 -2.8119,2.1496 z m 2.9657,1.1779 -0.47319,0.13833 -0.17094,-0.5848 -6.8859,-0.56495 -0.21922,-0.74996 5.4961,-4.1893 -0.19183,-0.65622 0.47319,-0.13832 0.70858,2.424 -0.47319,0.13832 -0.21662,-0.74103 -1.3011,0.98602 0.81949,2.8034 1.6273,0.13 -0.214,-0.73211 0.47319,-0.13832 z" />
    <path
       inkscape:connector-curvature="0"
       id="path18"
       d="m -335.32,87.673 0.067,0.7598 -5.4847,2.0803 5.764,1.0886 0.067,0.7598 -6.2615,2.3775 0.0604,0.68567 -0.49572,0.0437 -0.22259,-2.5249 0.49572,-0.0437 0.076,0.86172 4.9831,-1.8913 -5.7447,-1.081 -0.0662,-0.75053 5.5247,-2.1025 -5.2982,-0.99431 0.0702,0.79686 -0.49572,0.0437 -0.17562,-1.9922 0.49572,-0.0437 0.06,0.68104 z" />
    <path
       inkscape:connector-curvature="0"
       id="path20"
       d="m -335.33,83.345 -0.49235,-0.02511 0.0453,-0.88716 -2.4943,-0.12723 -3.5603,1.9652 -0.0332,0.65028 -0.49699,-0.02535 0.13149,-2.5779 0.497,0.02535 -0.0412,0.8082 2.8939,-1.5894 -2.7171,-1.8756 -0.0398,0.78033 -0.49699,-0.02535 0.10282,-2.0159 0.497,0.02535 -0.0334,0.65492 3.2565,2.2571 2.5825,0.13173 0.0453,-0.88716 0.49236,0.02511 z" />
    <path
       inkscape:connector-curvature="0"
       id="path22"
       d="m -335.04,78.334 -0.48625,-0.08127 0.14567,-0.87158 -5.8717,-0.98138 -0.14567,0.87158 -0.49083,-0.08204 0.44698,-2.6744 0.49084,0.08204 -0.14568,0.87158 2.5918,0.43319 -2.0988,-3.3828 -0.1242,0.74313 -0.49084,-0.08204 0.38029,-2.2753 0.49083,0.08204 -0.1288,0.77066 2.0912,3.3721 3.8388,-2.7393 0.13034,-0.77983 0.48625,0.08127 -0.26604,1.5918 -3.7952,2.7042 2.7661,0.46232 0.14568,-0.87158 0.48624,0.08127 z" />
    <path
       inkscape:connector-curvature="0"
       id="path24"
       d="m -333.78,71.317 -0.47385,-0.13605 0.24386,-0.84935 -5.722,-1.6428 -0.24386,0.84935 -0.47832,-0.13733 0.74825,-2.6062 0.47832,0.13733 -0.24385,0.84935 5.646,1.621 0.87532,-3.0487 -1.1176,-0.32086 0.15787,-0.54984 1.6674,0.47873 z" />
    <path
       inkscape:connector-curvature="0"
       id="path26"
       d="m -330.26,61.065 0.16766,-0.40376 0.007,0.0079 q 0.37314,0.59308 0.57501,0.67691 0.19759,0.08205 0.37671,-0.0098 0.18091,-0.0961 0.2808,-0.33663 0.0482,-0.11597 0.0698,-0.25302 0.0259,-0.13526 0.0236,-0.28731 l 0.54372,0.23082 q -0.0256,0.17068 -0.069,0.32386 -0.0374,0.15066 -0.0945,0.28811 -0.20155,0.48536 -0.50543,0.67141 -0.29957,0.18782 -0.64749,0.04335 -0.21047,-0.0874 -0.38461,-0.31079 -0.16984,-0.22161 -0.34314,-0.64105 z m -1.7355,4.1793 -0.4553,-0.18907 0.33889,-0.8161 -5.4979,-2.2831 -0.3389,0.8161 -0.45959,-0.19085 2.1439,-5.1629 1.426,0.59217 -0.21939,0.52832 -0.89771,-0.37278 -1.2236,2.9466 2.1476,0.89182 0.87221,-2.1004 -0.80322,-0.33354 0.21939,-0.52832 2.1304,0.88469 -0.21939,0.52832 -0.80321,-0.33354 -0.87221,2.1004 2.6845,1.1148 1.2521,-3.0153 -0.89771,-0.37278 0.21939,-0.52832 1.426,0.59217 z" />
    <path
       inkscape:connector-curvature="0"
       id="path28"
       d="m -328.62,57.719 -0.43163,-0.2382 0.42921,-0.77775 -5.1632,-2.8494 -0.98651,1.7876 0.94877,0.52359 -0.2764,0.50085 -1.4333,-0.791 2.9798,-5.3994 1.4333,0.791 -0.2764,0.50085 -0.94877,-0.52359 -0.9865,1.7876 5.1632,2.8494 0.42921,-0.77774 0.43163,0.2382 z" />
    <path
       inkscape:connector-curvature="0"
       id="path30"
       d="m -327.65,51.168 1.4692,-2.0826 -3.4329,-0.86219 z m 0.92464,3.0542 -0.40284,-0.28418 0.35121,-0.49785 -3.8449,-5.7403 0.4504,-0.63847 6.7001,1.6929 0.39411,-0.55866 0.40284,0.28418 -1.4558,2.0636 -0.40285,-0.28418 0.44505,-0.63086 -1.5816,-0.40432 -1.6837,2.3866 0.9114,1.3544 0.43968,-0.62326 0.40284,0.28418 z" />
    <path
       inkscape:connector-curvature="0"
       id="path32"
       d="m -318.44,38.636 0.48224,0.49116 q -0.0451,0.61788 -0.20695,1.0505 -0.16183,0.43264 -0.47047,0.73567 -0.31859,0.3128 -1.1111,0.66073 l -0.0462,0.01931 q -0.0495,0.02257 -0.15188,0.06438 -0.67357,0.28982 -0.98885,0.59937 -0.30531,0.29977 -0.47348,0.70604 -0.1681,0.39969 -0.21257,0.94523 l -0.49527,-0.50444 q 0.0484,-0.61456 0.21341,-1.0373 0.16509,-0.42932 0.47704,-0.73561 0.31859,-0.3128 1.1111,-0.66073 l 0.0462,-0.01931 q 0.0495,-0.02257 0.14198,-0.06119 0.67019,-0.27998 0.9921,-0.59605 0.30532,-0.29977 0.4768,-0.7093 0.17149,-0.40953 0.21589,-0.94849 z" />
    <path
       inkscape:connector-curvature="0"
       id="path34"
       d="m -310.86,33.294 q 0.31918,-0.10919 0.63166,-0.06226 0.31373,0.04048 0.68149,0.25216 l 1.9903,1.1412 0.70115,-0.47422 0.27619,0.40836 -1.3561,0.91716 -2.1353,-1.2228 q -0.61769,-0.35707 -0.93765,-0.36526 -0.32257,-0.01204 -0.70011,0.24331 l -0.8591,0.58104 1.5321,2.2653 0.81288,-0.54978 0.27619,0.40836 -2.3269,1.5738 -0.27619,-0.40836 0.73197,-0.49506 -3.3351,-4.9312 -0.73197,0.49506 -0.2788,-0.41222 2.9163,-1.9724 q 0.83985,-0.56802 1.5654,-0.47482 0.72943,0.0906 1.2271,0.82642 0.40126,0.59328 0.29799,1.1628 -0.10202,0.5631 -0.70348,1.0934 z m -1.9863,1.0065 1.1365,-0.76864 q 0.58173,-0.39344 0.67411,-0.85457 0.0898,-0.46498 -0.30106,-1.0429 -0.39084,-0.57787 -0.85321,-0.6638 -0.46238,-0.08592 -1.0441,0.30752 l -1.1365,0.76864 z" />
    <path
       inkscape:connector-curvature="0"
       id="path36"
       d="m -303.44,32.578 q 1.0177,-0.51256 1.1854,-1.4719 0.16566,-0.9635 -0.52472,-2.3342 -0.69247,-1.3749 -1.5632,-1.8112 -0.87279,-0.44048 -1.8905,0.07208 -1.0218,0.51465 -1.1875,1.4781 -0.16776,0.95934 0.52472,2.3342 0.69038,1.3708 1.5632,1.8112 0.87069,0.43633 1.8925,-0.07832 z m 0.22385,0.44446 q -0.63137,0.31799 -1.2677,0.37809 -0.63213,0.058 -1.238,-0.14198 -0.69954,-0.23091 -1.2251,-0.70569 -0.52138,-0.47687 -0.90004,-1.2287 -0.37866,-0.75184 -0.45143,-1.4546 -0.0707,-0.70906 0.1602,-1.4086 0.20205,-0.61209 0.62292,-1.0792 0.41877,-0.47129 1.0584,-0.79347 1.35,-0.67992 2.6264,-0.21358 1.2764,0.46634 2.0065,1.916 0.37448,0.74353 0.44728,1.4567 0.0707,0.70906 -0.1623,1.4044 -0.20205,0.61209 -0.62082,1.0834 -0.42087,0.46714 -1.0564,0.78722 z" />
    <path
       inkscape:connector-curvature="0"
       id="path38"
       d="m -299.27,30.986 -0.16372,-0.46501 0.83351,-0.29347 -1.977,-5.6152 -0.83351,0.29347 -0.16527,-0.4694 2.5576,-0.90048 0.16527,0.4694 -0.83352,0.29347 0.87268,2.4786 1.9481,-3.4718 -0.71068,0.25022 -0.16527,-0.4694 2.1759,-0.7661 0.16527,0.4694 -0.737,0.25949 -1.9424,3.4599 4.2529,2.038 0.74578,-0.26258 0.16372,0.46501 -1.5223,0.53596 -4.201,-2.0168 0.93137,2.6453 0.83352,-0.29347 0.16372,0.46501 z" />
    <path
       inkscape:connector-curvature="0"
       id="path40"
       d="m -289.59,27.868 -0.0691,-0.48813 0.87495,-0.12385 -0.83439,-5.8944 -0.9256,0.13102 -0.0697,-0.49273 2.0032,-0.28356 3.1059,4.5535 1.7201,-5.2367 1.8788,-0.26596 0.0697,0.49273 -0.91639,0.12972 0.83439,5.8944 0.87955,-0.12451 0.0691,0.48813 -2.6893,0.38069 -0.0691,-0.48813 0.87495,-0.12385 -0.75225,-5.3141 -1.6792,5.1275 -0.6493,0.09191 -3.0363,-4.46 0.75225,5.3141 0.87494,-0.12385 0.0691,0.48813 z" />
    <path
       inkscape:connector-curvature="0"
       id="path42"
       d="m -281.2,28.431 -0.0254,-1.0927 0.53006,-0.01232 q 0.0247,0.45999 0.23442,0.67842 0.20988,0.22308 0.61904,0.21357 0.55331,-0.01286 0.76374,-0.36666 0.21043,-0.3538 0.18687,-1.3674 l -0.14448,-6.2165 -1.0787,0.02507 -0.0116,-0.49751 2.906,-0.06754 0.0116,0.49751 -0.88342,0.02053 0.14534,6.2537 q 0.0267,1.1485 -0.42174,1.6706 -0.44843,0.52216 -1.4713,0.54593 -0.33013,0.0077 -0.67139,-0.06348 -0.3459,-0.07105 -0.689,-0.22125 z" />
    <path
       inkscape:connector-curvature="0"
       id="path44"
       d="m -271.82,23.469 q 0.31841,0.11141 0.53507,0.34143 0.22163,0.22571 0.37993,0.6194 l 0.85939,2.1272 0.84429,0.0605 -0.0352,0.49173 -1.6329,-0.11702 -0.92297,-2.281 q -0.26494,-0.66245 -0.51142,-0.86663 -0.24616,-0.20882 -0.70078,-0.24139 l -1.0345,-0.07413 -0.19547,2.7277 0.97882,0.07014 -0.0352,0.49173 -2.8019,-0.20079 0.0352,-0.49173 0.8814,0.06316 0.42552,-5.9379 -0.8814,-0.06316 0.0356,-0.49637 3.5117,0.25166 q 1.0113,0.07247 1.5241,0.59415 0.51747,0.52202 0.45397,1.4081 -0.0512,0.7144 -0.48437,1.0984 -0.42821,0.37964 -1.2288,0.42485 z m -2.1836,-0.43625 1.3685,0.09807 q 0.70049,0.0502 1.0581,-0.25523 0.35794,-0.31007 0.40781,-1.0059 0.0499,-0.69585 -0.26054,-1.0492 -0.31041,-0.3533 -1.0109,-0.4035 l -1.3685,-0.09807 z" />
    <path
       inkscape:connector-curvature="0"
       id="path46"
       d="m -264.04,27.666 0.83834,0.21336 q 1.3116,0.33381 2.2006,-0.23658 0.89354,-0.56924 1.2492,-1.9665 0.3556,-1.3972 -0.15489,-2.3142 -0.51049,-0.917 -1.8266,-1.2519 l -0.83834,-0.21336 z m -1.8929,0.02695 0.12159,-0.47776 0.85637,0.21795 1.4683,-5.7692 -0.85637,-0.21795 0.12274,-0.48227 2.6773,0.68138 q 1.7398,0.44278 2.4828,1.5773 0.74758,1.1357 0.34494,2.7177 -0.40378,1.5865 -1.6045,2.2312 -1.2007,0.64465 -2.936,0.20301 z" />
    <path
       inkscape:connector-curvature="0"
       id="path48"
       d="m -257.36,30.137 0.17752,-0.45992 0.82873,0.31988 0.89933,-2.33 -0.7559,-3.9958 -0.60744,-0.23446 0.17919,-0.46426 2.4081,0.92948 -0.1792,0.46426 -0.75497,-0.2914 0.60687,3.2454 2.6299,-1.996 -0.72893,-0.28136 0.1792,-0.46426 1.8831,0.72684 -0.17919,0.46426 -0.61179,-0.23614 -3.1607,2.3894 -0.93116,2.4124 0.82873,0.31988 -0.17752,0.45992 z" />
    <path
       inkscape:connector-curvature="0"
       id="path50"
       d="m -250.84,32.392 1.2304,0.648 q 0.74072,0.3901 1.2513,0.249 0.51058,-0.1411 0.87902,-0.84066 0.36626,-0.69545 0.19159,-1.1922 -0.1684,-0.49869 -0.91323,-0.89095 l -1.2304,-0.648 z m 1.6384,-3.111 1.0452,0.55047 q 0.67487,0.35542 1.12,0.25872 0.44928,-0.09454 0.74402,-0.65419 0.29691,-0.56376 0.11853,-0.98361 -0.17209,-0.42179 -0.84697,-0.77722 l -1.0452,-0.55047 z m -3.4854,2.6955 0.22972,-0.4362 0.78187,0.41177 2.774,-5.2673 -0.78186,-0.41177 0.23189,-0.44031 3.0328,1.5972 q 0.93001,0.48979 1.1976,1.1196 0.27385,0.62782 -0.12492,1.385 -0.28824,0.5473 -0.78866,0.69902 -0.4963,0.15388 -1.1649,-0.10363 0.72986,0.51053 0.92075,1.1262 0.19717,0.61372 -0.15826,1.2886 -0.48112,0.91355 -1.2848,1.0422 -0.80367,0.12867 -2.0258,-0.51499 z" />
    <path
       inkscape:connector-curvature="0"
       id="path52"
       d="m -243.38,37.022 q 0.93102,0.65695 1.8565,0.35371 0.92817,-0.30704 1.813,-1.5611 0.88755,-1.2578 0.86302,-2.2314 -0.0219,-0.97739 -0.95288,-1.6343 -0.93482,-0.65963 -1.863,-0.35259 -0.92549,0.30324 -1.813,1.5611 -0.88486,1.254 -0.86301,2.2314 0.0245,0.97359 0.95936,1.6332 z m -0.28691,0.40661 q -0.57762,-0.40758 -0.92996,-0.9408 -0.34854,-0.53054 -0.45705,-1.1592 -0.1253,-0.72593 0.0465,-1.413 0.17555,-0.68441 0.66089,-1.3722 0.48534,-0.68782 1.0713,-1.0826 0.59245,-0.39594 1.3184,-0.52123 0.63518,-0.10963 1.2454,0.04202 0.61288,0.14785 1.1981,0.56079 1.235,0.87146 1.4239,2.2172 0.1889,1.34574 -0.74693,2.6719 -0.47998,0.68022 -1.0751,1.08 -0.59244,0.39594 -1.3157,0.51743 -0.63519,0.10963 -1.2481,-0.03822 -0.6102,-0.15165 -1.1916,-0.56191 z" />
    <path
       inkscape:connector-curvature="0"
       id="path54"
       d="m -235.1,44.558 -0.54965,-0.52882 2.7684,-5.1716 -5.0608,2.966 -0.54966,-0.52883 3.1588,-5.9061 -0.49603,-0.47723 0.34503,-0.35862 1.8266,1.7574 -0.34502,0.35862 -0.6234,-0.59976 -2.5143,4.6996 5.0412,-2.959 0.54295,0.52238 -2.784,5.2147 4.6476,-2.7311 -0.57647,-0.55462 0.34503,-0.35862 1.4412,1.3866 -0.34503,0.35862 -0.49268,-0.47401 z" />
    <path
       inkscape:connector-curvature="0"
       id="path56"
       d="m -232.55,46.885 1.2444,-0.97569 0.32635,0.42377 q -0.60785,0.50614 -0.64109,1.0818 -0.0267,0.57648 0.5214,1.2755 0.5108,0.65148 1.0339,0.79098 0.52961,0.14029 1.0237,-0.24711 0.39528,-0.30993 0.44399,-0.68499 0.0516,-0.3714 -0.2694,-1.1954 l -0.34939,-0.89033 q -0.37621,-0.96977 -0.27372,-1.5702 0.10535,-0.59678 0.72389,-1.0818 0.6954,-0.54524 1.4671,-0.35246 0.7717,0.19278 1.4719,1.0858 0.29845,0.38064 0.57011,0.90048 0.27532,0.51697 0.51969,1.1528 l -1.1639,0.91256 -0.32427,-0.41358 q 0.52949,-0.51563 0.53029,-1.0422 0.007,-0.52583 -0.51208,-1.1883 -0.45341,-0.57828 -0.92949,-0.69553 -0.46956,-0.11646 -0.91974,0.23651 -0.39162,0.30706 -0.43696,0.70903 -0.0453,0.40197 0.31187,1.3098 l 0.32959,0.83493 q 0.35928,0.91803 0.25838,1.5054 -0.0944,0.58817 -0.67632,1.0444 -0.79422,0.62272 -1.5957,0.42965 -0.80148,-0.19308 -1.5906,-1.1996 -0.35297,-0.45018 -0.62879,-0.9904 -0.27295,-0.53656 -0.46508,-1.166 z" />
    <path
       inkscape:connector-curvature="0"
       id="path58"
       d="m -229.04,51.98 0.42072,-0.25698 0.46062,0.75412 5.0804,-3.1031 -0.46062,-0.75412 0.42469,-0.2594 1.4134,2.314 -0.42469,0.2594 -0.46062,-0.75412 -2.2425,1.3697 3.8013,1.1824 -0.39273,-0.64299 0.42469,-0.2594 1.2024,1.9687 -0.42469,0.2594 -0.40728,-0.6668 -3.7886,-1.1793 -1.1076,4.584 0.41213,0.67474 -0.42072,0.25698 -0.84124,-1.3773 1.0977,-4.5289 -2.3934,1.4619 0.46062,0.75412 -0.42072,0.25698 z" />
    <path
       inkscape:connector-curvature="0"
       id="path60"
       d="m -224.19,59.549 0.3886,0.79364 -0.44277,0.2168 -1.1924,-2.4352 0.44277,-0.2168 0.3886,0.79364 5.3466,-2.6179 -0.38859,-0.79364 0.44694,-0.21884 1.1924,2.4352 -0.44694,0.21884 -0.3886,-0.79364 z" />
    <path
       inkscape:connector-curvature="0"
       id="path62"
       d="m -223.76,61.493 0.46078,-0.17528 0.31419,0.82593 5.5641,-2.1166 -0.31419,-0.82593 0.46513,-0.17694 1.9876,5.2251 -1.4432,0.549 -0.20339,-0.53468 0.90852,-0.3456 -1.1344,-2.982 -2.1735,0.8268 0.80862,2.1257 0.81288,-0.30922 0.20339,0.53468 -2.1561,0.82019 -0.20339,-0.53468 0.81288,-0.30922 -0.80861,-2.1257 -2.7169,1.0335 1.1608,3.0516 0.90852,-0.3456 0.2034,0.53468 -1.4432,0.549 z" />
    <path
       inkscape:connector-curvature="0"
       id="path64"
       d="m -215.28,72.285 q 0.80678,-0.36333 1.0873,-0.96265 0.28499,-0.60041 0.0678,-1.4953 -0.28303,-1.1661 -1.1726,-1.558 -0.88958,-0.39189 -2.4082,-0.02329 -1.487,0.36092 -2.1071,1.1384 -0.62011,0.77747 -0.34147,1.9255 0.12397,0.51072 0.36351,0.94553 0.23954,0.43481 0.59467,0.7937 l 1.7401,-0.42236 -0.30826,-1.27 0.4836,-0.11738 0.53096,2.1875 -2.5174,0.61104 q -0.49392,-0.51664 -0.83913,-1.1699 -0.33959,-0.64982 -0.53157,-1.4408 -0.3708,-1.5276 0.35905,-2.6811 0.73547,-1.1501 2.3219,-1.5351 1.6,-0.38835 2.7729,0.30328 1.1774,0.69053 1.5559,2.2498 0.14042,0.57852 0.15402,1.2261 0.0192,0.651 -0.083,1.4129 l -1.6,0.38835 z" />
    <path
       inkscape:connector-curvature="0"
       id="path66"
       d="m -218.87,78.759 q 0.11916,1.1332 0.95701,1.6297 0.84249,0.49598 2.3689,0.33549 1.531,-0.16098 2.2473,-0.82086 0.7209,-0.66036 0.60175,-1.7936 -0.11964,-1.1378 -0.96213,-1.6338 -0.83785,-0.49647 -2.3688,-0.33549 -1.5264,0.16049 -2.2473,0.82086 -0.71627,0.65988 -0.59663,1.7977 z m -0.49491,0.05204 q -0.0739,-0.70306 0.0951,-1.3194 0.1695,-0.61174 0.57099,-1.1076 0.46357,-0.57251 1.0936,-0.89597 0.63054,-0.31883 1.4677,-0.40686 0.8372,-0.08803 1.5203,0.09268 0.68817,0.18485 1.2607,0.64842 0.50095,0.40563 0.78887,0.96459 0.29255,0.55848 0.36744,1.2708 0.15806,1.5032 -0.72987,2.5319 -0.88794,1.0287 -2.5022,1.1984 -0.82794,0.08705 -1.5208,-0.09731 -0.68817,-0.18485 -1.2561,-0.64891 -0.50095,-0.40563 -0.7935,-0.96411 -0.28792,-0.55897 -0.36233,-1.2666 z" />
    <path
       inkscape:connector-curvature="0"
       id="path68"
       d="m -215.63,92.995 -0.6859,-0.05771 q -0.36885,-0.49776 -0.52841,-0.93124 -0.15955,-0.43348 -0.12329,-0.86449 0.0374,-0.44491 0.41115,-1.2256 l 0.0224,-0.04479 q 0.0228,-0.04942 0.0731,-0.14787 0.32148,-0.65905 0.35852,-1.0993 0.0359,-0.42638 -0.10168,-0.844 -0.13331,-0.4126 -0.45546,-0.8551 l 0.70444,0.05927 q 0.36421,0.49737 0.51489,0.92544 0.15492,0.43309 0.11827,0.86874 -0.0374,0.44491 -0.41115,1.2256 l -0.0224,0.04479 q -0.0228,0.04942 -0.0677,0.13899 -0.32534,0.64939 -0.36316,1.0989 -0.0359,0.42637 0.10129,0.84864 0.13716,0.42226 0.45507,0.85973 z" />
    <path
       inkscape:connector-curvature="0"
       id="path70"
       d="m -220.18,97.185 0.47679,0.12532 -0.22463,0.85464 5.7576,1.5133 0.22464,-0.85464 0.48129,0.12651 -0.68928,2.6224 -0.48129,-0.1265 0.22463,-0.85464 -5.6811,-1.4932 -0.80633,3.0677 1.1245,0.29557 -0.14542,0.55327 -1.6778,-0.441 z" />
    <path
       inkscape:connector-curvature="0"
       id="path72"
       d="m -221.83,103.3 0.4595,0.17861 -0.32015,0.82363 5.5487,2.1568 0.32015,-0.82363 0.46383,0.1803 -2.0254,5.2106 -1.4392,-0.55943 0.20725,-0.53319 0.906,0.35217 1.1559,-2.9738 -2.1674,-0.8425 -0.82397,2.1198 0.81063,0.31509 -0.20726,0.5332 -2.1501,-0.83577 0.20725,-0.53319 0.81063,0.31509 0.82397,-2.1198 -2.7093,-1.0531 -1.1829,3.0431 0.90599,0.35217 -0.20725,0.53319 -1.4392,-0.55942 z" />
    <path
       inkscape:connector-curvature="0"
       id="path74"
       d="m -222.77,116.99 q 0.84221,0.27127 1.4521,0.0146 0.61398,-0.25445 1.0527,-1.0641 0.57171,-1.055 0.17435,-1.9421 -0.39736,-0.88715 -1.7713,-1.6317 -1.3453,-0.72904 -2.3266,-0.56787 -0.98134,0.16118 -1.5442,1.1998 -0.2504,0.46207 -0.36414,0.94528 -0.11375,0.48322 -0.0908,0.9876 l 1.5743,0.85313 0.62267,-1.149 0.43753,0.2371 -1.0725,1.9791 -2.2776,-1.2343 q -0.0201,-0.71447 0.16164,-1.4306 0.18366,-0.70983 0.57145,-1.4254 0.74898,-1.3821 2.0638,-1.7487 1.3167,-0.3603 2.752,0.41749 1.4475,0.78444 1.8542,2.084 0.41074,1.3017 -0.35376,2.7124 -0.28363,0.5234 -0.70767,1.013 -0.42217,0.49594 -1.0088,0.9927 l -1.4475,-0.78444 z" />
    <path
       inkscape:connector-curvature="0"
       id="path76"
       d="m -228.03,116.4 0.39703,0.29224 -0.55416,0.75287 4.7944,3.529 0.55416,-0.75287 0.40078,0.295 -1.0559,1.4346 -6.8798,0.10453 4.0115,2.9528 0.55141,-0.74912 0.40078,0.295 -1.4447,1.9627 -0.40077,-0.295 0.55416,-0.75287 -5.3,-3.9012 0.3336,-0.45321 7.3477,-0.11246 -4.2063,-3.0961 -0.55416,0.75286 -0.39704,-0.29224 z" />
    <path
       inkscape:connector-curvature="0"
       id="path78"
       d="m -234.01,124.74 -0.59503,0.6533 -0.36448,-0.33196 1.8258,-2.0046 0.36447,0.33196 -0.59503,0.65331 4.4012,4.0086 0.59503,-0.65331 0.36792,0.3351 -1.8258,2.0046 -0.36791,-0.3351 0.59503,-0.6533 z" />
    <path
       inkscape:connector-curvature="0"
       id="path80"
       d="m -239,131.38 q -0.42621,-0.92597 -0.22675,-1.7856 0.19915,-0.85303 1.0186,-1.5972 0.5027,-0.45648 1.0894,-0.67515 0.58673,-0.21866 1.224,-0.18796 0.73581,0.0355 1.3692,0.35242 0.63303,0.32354 1.1958,0.9433 1.088,1.1982 1.0619,2.56 -0.023,1.3653 -1.1558,2.3939 -0.42006,0.38144 -0.99526,0.70273 -0.57521,0.32129 -1.3259,0.59461 l -1.0756,-1.1844 0.38908,-0.3533 q 0.71519,0.53162 1.3791,0.48789 0.66045,-0.0406 1.3525,-0.66906 0.82291,-0.74725 0.7149,-1.7172 -0.10488,-0.96646 -1.1335,-2.0992 -1.0255,-1.1294 -1.9805,-1.3301 -0.9519,-0.19732 -1.7748,0.54993 -0.57501,0.52214 -0.69987,1.1318 -0.12173,0.61312 0.207,1.3072 z" />
    <path
       inkscape:connector-curvature="0"
       id="path82"
       d="m -240.78,133.56 -2.0802,1.4726 2.9481,1.9588 z m 0.14804,-3.1876 0.28485,0.40237 -0.49726,0.35204 1.7079,6.6946 -0.63771,0.45147 -5.7505,-3.8326 -0.558,0.39503 -0.28486,-0.40236 2.0612,-1.4592 0.28486,0.40237 -0.63012,0.4461 1.3559,0.90914 2.3838,-1.6876 -0.40695,-1.581 -0.62254,0.44072 -0.28485,-0.40236 z" />
  </g>
  <path
     style="fill:none;stroke:#c0c0c0;stroke-width:0.49283999"
     inkscape:connector-curvature="0"
     id="path86"
     d="M 57.13,141.94 A 69.242,69.242 0 0 1 8.168,57.136 69.242,69.242 0 0 1 92.972,8.174 69.242,69.242 0 0 1 141.934,92.978 69.242,69.242 0 0 1 57.13,141.94 Z" />
  <g
     style="fill:#c0c0c0"
     id="g96"
     aria-label="2017"
     transform="translate(352.18,-9.85)">
    <path
       inkscape:connector-curvature="0"
       id="path88"
       d="m -290.46,144.31 h -0.57878 v -1.3746 q 0.55294,-0.29456 1.111,-0.44959 0.56328,-0.15503 1.1007,-0.15503 1.2041,0 1.9017,0.58395 0.69763,0.58394 0.69763,1.5865 0,1.1317 -1.5813,2.7078 -0.12403,0.11885 -0.18604,0.18087 l -1.9482,1.9482 h 3.2194 v -0.95085 h 0.60462 v 1.7983 h -4.9764 v -0.56327 l 2.3409,-2.3358 q 0.77515,-0.77514 1.1059,-1.4211 0.33072,-0.65112 0.33072,-1.3643 0,-0.78031 -0.40824,-1.2196 -0.40308,-0.43925 -1.1162,-0.43925 -0.73897,0 -1.142,0.3669 -0.40308,0.36691 -0.47542,1.1007 z" />
    <path
       inkscape:connector-curvature="0"
       id="path90"
       d="m -281.71,149.82 q 0.79065,0 1.1834,-0.86817 0.39274,-0.86816 0.39274,-2.62 0,-1.757 -0.39274,-2.6252 -0.39274,-0.86816 -1.1834,-0.86816 -0.79066,0 -1.1834,0.86816 -0.39274,0.86817 -0.39274,2.6252 0,1.7518 0.39274,2.62 0.39274,0.86817 1.1834,0.86817 z m 0,0.51159 q -1.2557,0 -1.9637,-1.0542 -0.7028,-1.0542 -0.7028,-2.9456 0,-1.8965 0.7028,-2.9507 0.70797,-1.0542 1.9637,-1.0542 1.2609,0 1.9637,1.0542 0.7028,1.0542 0.7028,2.9507 0,1.8914 -0.7028,2.9456 -0.7028,1.0542 -1.9637,1.0542 z" />
    <path
       inkscape:connector-curvature="0"
       id="path92"
       d="m -276.83,150.19 v -0.54777 h 1.3436 v -6.4182 l -1.5555,1.0077 v -0.67696 l 1.881,-1.2196 h 0.71314 v 7.307 h 1.3436 v 0.54777 z" />
    <path
       inkscape:connector-curvature="0"
       id="path94"
       d="m -265.63,143 -3.0179,7.1882 h -0.76998 l 2.8784,-6.8678 h -3.5657 v 0.95085 h -0.60461 v -1.7983 h 5.0798 z" />
  </g>
  <path
     style="fill:none;stroke:#c0c0c0;stroke-width:1.11800003"
     inkscape:connector-curvature="0"
     id="path98"
     d="M 56.44,144.5 A 71.902,71.902 0 0 1 5.598,56.439 71.902,71.902 0 0 1 93.659,5.597 71.902,71.902 0 0 1 144.501,93.658 71.902,71.902 0 0 1 56.44,144.5 Z" />
  <path
     style="fill:none;stroke:#c0c0c0;stroke-width:0.34597999"
     inkscape:connector-curvature="0"
     id="path100"
     d="M 60.67,128.72 A 55.557,55.557 0 0 1 21.385,60.676 55.557,55.557 0 0 1 89.429,21.391 55.557,55.557 0 0 1 128.714,89.435 55.557,55.557 0 0 1 60.67,128.72 Z" />
  <path
     style="fill:#c0c0c0;fill-opacity:0.94118"
     inkscape:connector-curvature="0"
     id="path102"
     d="m 75.59,35.71 c -2.5974,-0.0254 -5.147,0.33065 -7.1448,1.094 -4.7685,1.822 -8.2107,4.7729 -10.433,8.9447 -2.6474,4.9686 -3.5781,8.7754 -3.5781,14.637 0,3.8784 0.0237,4.0007 0.7307,3.8158 0.69781,-0.18251 0.71924,-0.34573 0.48524,-3.6463 -0.21928,-3.0928 -0.16697,-3.6158 0.49919,-4.9919 0.57373,-1.1852 1.1696,-1.7587 2.6014,-2.5042 1.6733,-0.87138 1.2622,-1.1749 -0.55912,-0.41291 -0.59105,0.24728 -0.61029,0.19352 -0.20931,-0.57206 2.2016,-4.2034 3.1254,-4.917 4.763,-3.6783 0.37663,0.28485 0.92284,0.52525 1.2139,0.53382 0.82759,0.0244 3.528,2.7188 3.528,3.5202 0,0.92239 0.26289,0.90921 1.0418,-0.0527 l 0.62526,-0.77256 0.45271,0.84543 c 0.24897,0.46521 0.441,1.329 0.42632,1.9193 l -0.0269,1.0733 0.65474,-0.80047 c 0.63074,-0.77147 0.6626,-0.77554 0.87331,-0.11162 0.1945,0.61274 0.53959,0.68595 3.113,0.66352 2.5123,-0.0219 3.1033,0.097 4.4814,0.90125 0.87312,0.50951 1.4398,0.92834 1.2593,0.93067 -0.18048,0.002 0.15269,0.44053 0.74001,0.97412 1.6087,1.4614 2.4229,2.8626 1.943,3.3424 -0.49856,0.49853 -2.1787,-0.18565 -2.1787,-0.88728 0,-0.25892 -0.46564,-0.91739 -1.0351,-1.463 -0.80585,-0.77205 -1.2394,-0.94078 -1.9549,-0.7612 -1.1306,0.28376 -0.94239,0.6391 0.77981,1.4738 0.9866,0.47826 1.165,0.67852 0.694,0.77774 -0.34888,0.0735 -0.86448,-0.0577 -1.1462,-0.29147 -0.73027,-0.60605 -0.70093,0.58121 0.0326,1.3147 0.71077,0.71075 0.51141,1.2351 -0.6935,1.8221 l -0.97875,0.47646 1.1012,0.66972 c 0.60574,0.36838 1.345,0.66974 1.6428,0.66974 0.29782,0 0.43937,0.16592 0.31419,0.36846 -0.12517,0.20253 -0.0373,0.59772 0.19534,0.87796 0.82373,0.99251 -0.53594,0.92726 -2.5053,-0.11988 -2.4952,-1.3268 -6.0352,-3.7048 -6.6895,-4.4938 -0.2839,-0.34237 -0.51623,-1.1933 -0.51623,-1.8908 0,-1.1202 -0.11253,-1.2809 -0.96687,-1.3792 -1.2478,-0.14364 -1.5245,0.49342 -2.1766,5.0209 -0.40495,2.8115 -0.41908,3.7469 -0.0723,4.7625 0.46067,1.3494 0.48837,1.3577 2.2546,0.67024 0.84714,-0.32972 1.3176,-0.34761 1.7637,-0.0661 1.0523,0.66378 0.71721,1.3564 -0.71419,1.4748 -1.4874,0.12311 -1.6505,0.39825 -0.61751,1.0434 0.38804,0.24233 0.70538,0.66479 0.70538,0.93845 0,1.1715 1.2825,2.6913 2.7445,3.253 1.48,0.56864 1.5267,0.56423 2.3875,-0.24442 l 0.87797,-0.82476 1.0692,1.2139 c 1.0997,1.2485 2.4244,3.6869 2.4381,4.4881 0.0186,1.0868 -1.0787,0.70929 -2.7931,-0.96065 -1.6136,-1.5717 -2.008,-1.784 -3.3078,-1.7792 -2.1437,0.008 -2.5832,0.38137 -1.82,1.5462 0.33676,0.51398 0.85455,1.0696 1.1503,1.2351 0.79795,0.44654 0.27466,1.3472 -0.9374,1.6134 -1.1,0.24157 -1.4114,0.84175 -1.1601,2.235 0.0917,0.5085 0.32628,0.7457 0.62529,0.63098 0.26331,-0.10105 0.64574,0.12769 0.84955,0.5085 0.20383,0.38084 0.54057,0.69244 0.74829,0.69244 0.2076,0 0.84926,0.39653 1.4257,0.88162 0.57647,0.48506 1.2741,0.88212 1.5503,0.88212 0.27614,0 0.50178,0.24733 0.50178,0.54983 0,0.3025 -0.16542,0.44762 -0.36793,0.32245 -0.47167,-0.29149 -1.3958,0.46678 -1.3958,1.1452 0,0.28585 0.338,0.99372 0.75086,1.5735 0.63203,0.88762 0.71514,1.3564 0.52604,2.9652 -0.12851,1.0936 -0.0854,1.9105 0.10078,1.9105 0.4943,0 -0.10242,1.8377 -0.72398,2.2298 -0.70649,0.44561 -2.2286,0.0551 -3.0251,-0.77619 -0.34493,-0.35996 -1.2202,-0.84558 -1.9451,-1.0795 -0.7249,-0.23395 -1.3988,-0.55645 -1.4976,-0.71623 -0.0987,-0.15978 -0.83634,-0.63264 -1.6392,-1.0511 -0.80282,-0.41846 -1.7475,-1.1096 -2.0991,-1.5358 -0.63103,-0.7647 -0.6337,-0.75805 -0.20672,0.50697 0.23797,0.70509 0.66591,1.5684 0.95084,1.9182 0.46582,0.57192 0.45574,0.61262 -0.0992,0.40463 -0.43945,-0.16473 -0.61492,-0.0564 -0.60873,0.37515 0.009,0.60153 2.023,1.8407 2.9921,1.8407 0.27625,0 0.66704,0.30845 0.86868,0.68522 0.21923,0.40966 0.63844,0.63236 1.0428,0.55449 0.63698,-0.12266 1.2864,0.65931 1.1276,1.3576 -0.0381,0.16732 0.21439,0.5193 0.56121,0.78237 0.34681,0.26308 0.47204,0.49951 0.27802,0.52504 -0.19404,0.0255 0.0441,0.18087 0.52917,0.3452 0.72885,0.24697 0.63698,0.28295 -0.52917,0.20876 -1.2512,-0.0796 -1.3976,-0.1818 -1.294,-0.90175 0.075,-0.52062 -0.0225,-0.72602 -0.27078,-0.57256 -0.21296,0.13163 -0.27876,0.41426 -0.14676,0.62785 0.15822,0.25599 0.0225,0.30533 -0.39738,0.14418 -0.47329,-0.18161 -0.55459,-0.12899 -0.31679,0.20465 0.47948,0.67276 0.37066,1.6704 -0.22325,2.0459 -0.38325,0.2423 -0.40045,0.33401 -0.0641,0.33795 0.25398,0.003 0.35682,0.17444 0.22892,0.38137 -0.1279,0.20693 -0.3212,0.28808 -0.42945,0.17984 -0.10821,-0.10825 -0.42193,-0.0103 -0.69709,0.21806 -0.38704,0.32124 -0.56494,0.31092 -0.78653,-0.0475 -0.34801,-0.56304 -1.0707,-0.18558 -1.0707,0.55911 0,0.81159 -0.8654,0.36021 -0.99476,-0.51882 -0.071,-0.48278 -0.36459,-0.76636 -0.79375,-0.76636 -0.69741,0 -0.998,-1.2371 -0.35708,-1.4697 0.17823,-0.0647 -0.0665,-0.59406 -0.54364,-1.1762 l -0.86765,-1.0583 -0.87489,1.0583 c -0.4812,0.58209 -0.96819,1.4156 -1.0821,1.8521 -0.20859,0.79949 -0.83613,1.1148 -0.83613,0.42013 0,-0.20548 -0.19077,-0.25564 -0.42373,-0.11163 -0.32962,0.2037 -0.32962,0.29321 0,0.40309 0.23296,0.0777 0.42373,0.53809 0.42373,1.0232 0,0.99743 -0.62646,0.96618 -1.2097,-0.0605 -0.20788,-0.36592 -0.65574,-0.98216 -0.99528,-1.3689 -0.33957,-0.38671 -0.61754,-1.0131 -0.61754,-1.3916 0,-0.8378 -1.0858,-1.7116 -1.5984,-1.2862 -0.58751,0.4876 -1.2155,-0.13933 -0.99272,-0.99116 0.23855,-0.91217 0.75769,-1.021 1.064,-0.22272 0.17264,0.44987 0.27246,0.46678 0.51263,0.0879 0.16406,-0.25879 0.30088,-0.57285 0.30384,-0.69766 0.0113,-0.47609 -1.0971,-0.61978 -1.913,-0.24804 -1.4269,0.65018 -2.4825,0.16004 -2.5502,-1.1849 -0.0322,-0.63907 -0.16901,-1.6783 -0.30438,-2.3089 -0.19777,-0.92149 -0.13451,-1.1462 0.32298,-1.1462 0.31306,0 0.56949,-0.13957 0.56946,-0.31004 0,-0.17049 0.48139,-0.50921 1.0697,-0.75292 1.6624,-0.68861 1.0043,-0.77608 -0.92654,-0.12301 -2.5928,0.87691 -2.7598,0.93208 -3.1419,1.0315 -0.19404,0.0505 -1.3847,0.49474 -2.6458,0.98755 l -2.2929,0.89607 2.7451,0.0176 c 2.2924,0.0144 2.7786,0.119 2.9481,0.63457 0.11171,0.33957 0.42426,1.1177 0.69453,1.7291 0.27028,0.6114 0.49144,1.2372 0.49144,1.3911 0,0.15391 0.73792,2.168 1.6402,4.4752 1.4719,3.7638 1.8625,4.4185 3.7982,6.3696 1.5335,1.5457 3.0233,2.601 5.1506,3.6499 1.6461,0.81164 3.3105,1.5476 3.6985,1.635 0.38807,0.0875 4.594053,1.15788 6.889751,1.23748 11.352138,0.39362 20.852276,-6.82859 27.825949,-14.89301 2.1832,-2.6739 3.418,-4.8114 4.0974,-7.0941 0.40412,-1.3578 0.48161,-1.4153 2.0583,-1.5188 1.9737,-0.12951 2.1418,-0.65159 0.31575,-0.98134 -1.6075,-0.2903 -6.1545,-1.4224 -7.8491,-1.9544 -1.6904,-0.53063 -5.6242,-4.5905 -6.8239,-7.0425 -0.88381,-1.8065 -0.95565,-2.2625 -0.86246,-5.4674 l 0.10128,-3.497 1.1684,0.11369 c 1.3744,0.13372 2.0478,-0.34141 2.7016,-1.9064 0.26283,-0.62904 0.76999,-1.438 1.1266,-1.7978 2.5245,-2.5472 3.118,-6.5854 1.4557,-9.9033 -0.2362,-0.47146 -0.72102,-0.79375 -1.1942,-0.79375 -0.43819,0 -1.1093,-0.3965 -1.4908,-0.88162 -0.66725,-0.84822 -1.3932,-1.255 -0.94467,-0.52916 0.11994,0.19404 0.0499,0.35245 -0.15552,0.35245 -0.43254,0 -0.45035,-0.0951 -0.16021,-0.85111 0.11735,-0.30581 0.33528,-0.47996 0.48472,-0.38759 0.43016,0.26585 0.32605,-1.7045 -0.11988,-2.2686 -0.31113,-0.39357 -0.30025,-0.44738 0.0486,-0.2377 0.34698,0.20857 0.43622,-0.17928 0.38706,-1.6836 -0.0351,-1.075 -0.15859,-1.8973 -0.2744,-1.8273 -0.1158,0.0699 -0.22971,-0.56153 -0.25323,-1.4035 -0.0528,-1.8889 -0.41243,-2.967 -0.78753,-2.3601 -0.14788,0.23929 -0.26355,-0.0967 -0.26355,-0.76687 0,-1.1884 -1.4659,-3.8304 -1.957,-3.5269 -0.13841,0.0855 -0.36656,-0.0301 -0.50694,-0.25733 -0.15944,-0.25795 -0.10245,-0.31846 0.15192,-0.16124 0.224,0.13843 0.40722,0.10268 0.40722,-0.0791 0,-0.4473 -0.88948,-1.1586 -1.1788,-0.94258 -0.12766,0.0953 -0.15269,0.0667 -0.0553,-0.063 0.25302,-0.337 -0.91628,-1.5483 -1.2785,-1.3245 -0.16589,0.10252 -0.21693,-0.035 -0.11319,-0.30541 0.22574,-0.58828 -2.1535,-2.6199 -4.4297,-3.7822 -2.425,-1.2383 -5.8434,-1.9011 -9.1829,-1.9337 z m 13.195,7.3732 c 0.35499,-0.0174 1.3169,0.33676 1.4821,0.60409 0.22437,0.36304 0.21482,0.36222 -0.8201,-0.0537 -0.43659,-0.1755 -0.79375,-0.38828 -0.79375,-0.47337 0,-0.0492 0.0498,-0.073 0.13176,-0.077 z m 0.92604,1.974 c 0.0108,-0.025 0.13756,0.0667 0.38603,0.26045 0.3089,0.24085 0.66609,0.33338 0.79375,0.20569 0.12766,-0.12766 0.23204,-0.047 0.23201,0.17931 0,0.60396 -0.54845,0.50178 -1.1033,-0.20569 -0.21418,-0.27307 -0.3193,-0.41473 -0.30851,-0.43976 z m 1.2351,1.5276 c 0.27397,0 0.41669,0.13232 0.31676,0.29403 -0.0999,0.16169 -0.24265,0.29353 -0.31676,0.29353 -0.0741,0 -0.21632,-0.13184 -0.31626,-0.29353 -0.0999,-0.16171 0.0423,-0.29403 0.31626,-0.29403 z m 1.7611,1.7606 c 0.093,0.0176 0.21331,0.17018 0.30128,0.39944 0.23855,0.62164 0.0352,0.7308 -0.31263,0.16796 -0.1279,-0.20694 -0.15709,-0.45167 -0.0646,-0.54415 0.0116,-0.0116 0.0246,-0.0192 0.0383,-0.0228 0.012,-0.003 0.0244,-0.003 0.0377,-5e-4 z m 0.2899,1.5529 c 0.23482,-0.005 0.47578,0.15608 0.50075,0.48784 0.0276,0.36674 -0.0189,0.66712 -0.10387,0.66712 -0.0849,0 -0.15449,-0.16811 -0.15452,-0.37362 0,-0.20545 -0.15891,-0.27545 -0.35293,-0.15555 -0.19404,0.11994 -0.35295,0.0669 -0.35295,-0.11781 0,-0.33227 0.2287,-0.50316 0.46352,-0.50798 z m -1.3327,0.23667 c 0.0358,-0.009 0.0685,-2.6e-4 0.0956,0.0269 0.10861,0.10862 2.6e-4,0.39323 -0.24082,0.63252 -0.34841,0.34581 -0.38886,0.30538 -0.19741,-0.19741 0.0994,-0.26093 0.23511,-0.43643 0.34261,-0.46199 z m 1.3105,1.3193 c 0.0561,0.0107 0.14327,0.11173 0.26977,0.30438 0.30877,0.47037 0.38626,0.47037 0.69503,0 0.19108,-0.29104 0.34727,-0.37026 0.34727,-0.17624 0,0.69045 -0.59286,1.332 -0.84852,0.91829 -0.16711,-0.2703 -0.4462,-0.28152 -0.90279,-0.0372 -0.82245,0.44016 -0.96472,0.44055 -1.234,0.005 -0.12359,-0.19997 0.0178,-0.25897 0.33176,-0.13851 0.30192,0.11586 0.54779,0.0253 0.54777,-0.20153 0,-0.22624 0.15843,-0.31321 0.35245,-0.19328 0.19402,0.11991 0.35565,0.0105 0.35864,-0.24339 0.002,-0.16811 0.0266,-0.24791 0.0827,-0.2372 z m -30.541,0.30438 c -0.68138,0 -0.67514,0.0424 0.14057,0.92035 0.77272,0.83169 1.8261,1.4669 2.5311,1.5265 0.14552,0.0123 0.26459,-0.35867 0.26459,-0.82476 0,-0.63335 -0.28075,-0.94511 -1.1111,-1.2345 -0.61103,-0.21302 -1.4323,-0.38756 -1.8252,-0.38756 z m 30.722,1.1348 c 0.10745,0.0201 0.0178,0.4913 -0.26871,1.1581 -0.19992,0.46521 -0.30967,0.52564 -0.32247,0.17671 -0.0106,-0.29101 0.13438,-0.76729 0.32247,-1.0583 0.13023,-0.20151 0.21987,-0.28557 0.26871,-0.27646 z m 0.60616,0.76274 c 0.0884,0.0156 0.11565,0.18505 0.0904,0.51935 -0.065,0.86309 -0.12364,0.91127 -0.45527,0.37465 -0.13036,-0.2109 -0.068,-0.55203 0.13798,-0.75809 0.0991,-0.0991 0.17383,-0.14525 0.22685,-0.13591 z m -1.8635,0.22635 c 0.0374,0.005 0.0697,0.0193 0.0946,0.0455 0.0645,0.0679 -0.10475,0.32858 -0.37621,0.57877 -0.27149,0.25019 -0.4935,0.29925 -0.49353,0.10904 0,-0.32054 0.51356,-0.76695 0.77515,-0.73329 z m 2.8717,0.12713 c 0.0953,0.002 0.10583,0.14123 0.0155,0.37671 -0.23452,0.61114 -0.48731,0.72292 -0.48731,0.21551 0,-0.18257 0.15703,-0.42924 0.34883,-0.5478 0.05,-0.0309 0.0912,-0.0452 0.12301,-0.0444 z m -2.7099,0.73379 c 0.0851,-0.002 0.2277,0.0235 0.43045,0.0765 0.60248,0.15753 0.67889,0.30231 0.36071,0.68574 -0.27027,0.32565 -0.27975,0.48628 -0.0284,0.48628 0.20632,0 0.47334,-0.15893 0.59325,-0.35295 0.11991,-0.19402 0.40711,-0.35026 0.6382,-0.34727 0.2948,0.004 0.30488,0.0827 0.0336,0.26458 -0.59778,0.40069 -0.91319,2.1176 -0.44233,2.4086 0.2536,0.15671 0.31334,0.0982 0.15708,-0.15452 -0.13843,-0.22402 -0.0703,-0.40722 0.15142,-0.40722 0.50678,0 0.26842,0.78939 -0.29509,0.97721 -0.23029,0.0768 -0.51771,-0.11824 -0.6387,-0.43357 -0.12552,-0.32708 -0.52809,-0.52903 -0.93742,-0.47024 -0.39463,0.0567 -0.77624,-0.0689 -0.84802,-0.27853 -0.0818,-0.23892 0.26773,-0.3225 0.93689,-0.22429 0.69482,0.10197 1.0682,0.005 1.0682,-0.27749 0,-0.26022 -0.28252,-0.36018 -0.70538,-0.24961 -0.38785,0.10144 -0.80917,0.0161 -0.93636,-0.18965 -0.12774,-0.20667 -0.0656,-0.27162 0.13901,-0.14521 0.51168,0.31623 0.82926,-0.65227 0.36587,-1.1157 -0.16637,-0.16637 -0.18468,-0.24874 -0.0429,-0.25271 z m 1.9756,1.416 c 0.10933,-0.004 0.33589,0.22214 0.54311,0.55396 0.51218,0.8201 0.34153,0.91027 -0.28784,0.15192 -0.24543,-0.29572 -0.37806,-0.60587 -0.29456,-0.68934 0.0104,-0.0104 0.0237,-0.016 0.0393,-0.0165 z m -32.6,1.2314 c -0.0865,-0.003 -0.17237,-0.003 -0.25839,0.002 -0.88474,0.0418 -1.7408,0.45226 -2.4841,1.2191 l -1.171,1.2082 1.4609,-0.37105 c 1.332,-0.33811 1.4064,-0.41396 0.8377,-0.8604 C 59.478,58.31934 59.35576,58.1267 59.5498,58.1603 c 0.19402,0.0336 0.63339,-0.0616 0.97616,-0.21135 0.61288,-0.26786 1.5112,-0.1702 2.9042,0.31576 0.46577,0.16248 0.40601,0.0622 -0.17621,-0.29509 -0.59746,-0.3665 -1.2126,-0.55788 -1.818,-0.57825 z m 30.865,0.52917 c 0.14082,7.1e-4 0.23358,0.0572 0.23358,0.16174 0,0.16716 -0.23813,0.39579 -0.52917,0.50747 -0.29107,0.11168 -0.52916,0.0659 -0.52916,-0.10129 0,-0.16719 0.23809,-0.39523 0.52916,-0.50696 0.10914,-0.0419 0.21109,-0.0614 0.29559,-0.061 z m 0.41029,0.90484 c 0.19405,0 0.59055,0.15404 0.88162,0.34211 0.29104,0.18809 0.37076,0.34208 0.17672,0.34208 -0.19394,0 -0.59106,-0.15399 -0.8821,-0.34208 -0.29104,-0.18807 -0.37018,-0.34211 -0.17624,-0.34211 z m -0.76427,0.49869 c 0.10726,0.006 0.13359,0.0755 0.0563,0.2005 -0.2072,0.3352 -0.87953,0.49551 -0.87956,0.20979 0,-0.0763 0.24615,-0.23326 0.54727,-0.3488 0.11774,-0.0452 0.21159,-0.0648 0.27596,-0.0615 z m 1.8815,0.70538 c 0.0644,-0.003 0.15772,0.0168 0.27543,0.062 0.61116,0.23445 0.72295,0.48728 0.2155,0.48728 -0.18258,0 -0.42873,-0.157 -0.54726,-0.3488 -0.0772,-0.12499 -0.0509,-0.19502 0.0563,-0.2005 z m -32.244,0.001 c -0.0485,0.004 -0.0962,0.0201 -0.14158,0.048 -0.2114,0.13065 -0.10977,0.48445 0.25527,0.88781 0.71387,0.7888 0.81092,0.81944 0.72141,0.22945 -0.10271,-0.6771 -0.49545,-1.1963 -0.8351,-1.1653 z m 29.965,0.17931 c 0.0608,-0.002 0.19566,0.0435 0.40826,0.12507 0.34906,0.13393 0.70122,0.24389 0.78237,0.24389 0.0811,0 0.14729,0.15841 0.14729,0.35245 0,0.51901 -0.45762,0.40685 -1.047,-0.25683 -0.28895,-0.32541 -0.39235,-0.4613 -0.29094,-0.46458 z m -32.56,0.986 c -0.15627,-0.0199 -0.17055,0.264 -0.17055,0.9839 0,0.67154 0.0207,1.2211 0.046,1.2211 0.0254,0 0.31035,-0.29146 0.63304,-0.64804 0.54798,-0.6055 0.54504,-0.6862 -0.046,-1.2211 -0.22386,-0.20259 -0.36875,-0.32395 -0.46249,-0.33588 z m 0.33226,0.62632 c 0.0358,-0.004 0.075,0.006 0.11629,0.031 0.16486,0.10186 0.20828,0.33305 0.0966,0.51366 -0.28527,0.46156 -0.39634,0.40984 -0.39634,-0.18502 0,-0.21186 0.076,-0.34783 0.18343,-0.35965 z m 37.924,0.52813 c 0.13472,0.0204 0.32819,0.22659 0.55345,0.64749 0.40244,0.75195 0.62201,3.1003 0.31833,3.4039 -0.11203,0.11206 -0.29177,-0.15991 -0.39946,-0.60462 -0.1077,-0.44471 -0.34931,-1.4041 -0.5364,-2.1316 -0.22283,-0.86659 -0.1605,-1.3491 0.0641,-1.3152 z m -42.152,3.005 c -0.0459,0.007 -0.0967,0.0218 -0.15298,0.0434 -0.43384,0.16651 -0.50088,0.51621 -0.31263,1.6304 0.13182,0.78015 0.28512,1.9115 0.34107,2.5135 0.23866,2.568 0.62559,4.4416 0.91673,4.4416 0.17201,0 0.31263,-1.2698 0.31263,-2.8221 0,-1.6463 -0.14716,-2.8225 -0.35292,-2.8225 -0.19405,0 -0.35296,-0.70911 -0.35296,-1.5762 0,-1.125 -0.0777,-1.4582 -0.39894,-1.4082 z m 2.2546,0.002 c -0.03,-0.003 -0.0575,-0.003 -0.0832,5.3e-4 -0.0294,0.004 -0.056,0.0134 -0.0786,0.0274 -0.18073,0.11171 -0.0593,0.50086 0.27028,0.86505 0.32961,0.36426 0.74789,0.57111 0.92863,0.45943 0.18071,-0.11171 0.0583,-0.50139 -0.2713,-0.86559 -0.25236,-0.27887 -0.55616,-0.46487 -0.76584,-0.4868 z m -0.0915,0.16073 c 0.0182,-0.0182 0.16105,0.0886 0.44082,0.30798 0.33954,0.26632 0.61754,0.54377 0.61751,0.61703 0,0.29035 -0.28998,0.10343 -0.75083,-0.48421 -0.21942,-0.27977 -0.32563,-0.42257 -0.3075,-0.4408 z m 4.2333,0.36327 c -0.007,-0.0305 -0.32343,0.25009 -0.97253,0.85474 -1.3487,1.2562 -1.4949,1.5537 -1.4749,2.9988 0.0205,1.4727 0.0543,1.5316 0.40981,0.72191 0.21301,-0.48508 0.40134,-1.308 0.41857,-1.8288 0.0173,-0.52197 0.50517,-1.472 1.0873,-2.1167 0.35615,-0.39447 0.53745,-0.60624 0.53173,-0.62995 z m 31.992,0.0765 c 0.33499,0.0207 0.7593,0.34984 1.233,0.98494 0.6228,0.83505 0.63103,0.98415 0.12091,2.205 -0.64974,1.555 -1.1436,1.6695 -1.4614,0.33901 -0.12747,-0.53356 -0.3548,-1.1289 -0.50488,-1.3229 -0.15007,-0.19402 -0.18745,-0.79689 -0.0832,-1.34 0.11494,-0.59875 0.36058,-0.88678 0.69557,-0.86609 z m -19.83,2.0262 c 0.53263,0.0275 1.3962,0.52559 2.2143,1.3725 0.72737,0.75295 1.6124,2.1963 1.9663,3.2076 0.74112,2.1177 0.6637,2.5372 -0.19275,1.0449 -0.3269,-0.56954 -0.81172,-1.0356 -1.0775,-1.0356 -0.57647,0 -3.4303,-3.4143 -3.4303,-4.1041 0,-0.34885 0.20029,-0.50175 0.51988,-0.48524 z m -14.455,4.6498 c -0.049,-0.009 -0.0841,0.2881 -0.0868,0.82166 -0.004,0.77613 0.0652,1.1352 0.15348,0.79788 0.0883,-0.33729 0.0919,-0.97245 0.007,-1.4113 -0.0264,-0.13713 -0.0516,-0.20418 -0.0739,-0.20825 z m 3.1094,5.9371 c -0.28964,0 -1.1618,2.1942 -0.98546,2.4794 0.34123,0.55216 0.52019,0.39344 0.27543,-0.24442 -0.15044,-0.39206 -0.0895,-0.50302 0.18343,-0.33435 0.27543,0.17021 0.33277,0.055 0.17624,-0.35293 -0.13364,-0.34824 -0.089,-0.51676 0.10488,-0.39687 0.18542,0.11461 0.33695,-0.0975 0.33695,-0.47131 0,-0.3738 -0.0411,-0.67955 -0.0915,-0.67955 z m 28.814,4.4096 0.74001,1.543 c 0.99047,2.0664 1.0842,6.1612 0.20513,8.9519 -0.35142,1.1156 -0.7973,2.0288 -0.99063,2.0288 -0.19333,0 -0.26831,-0.27794 -0.16692,-0.61751 0.62111,-2.0798 0.87233,-7.6982 0.46148,-10.319 z m -28.748,4.7119 1.2041,1.0692 c 0.66212,0.58801 1.3258,0.99335 1.4748,0.90122 0.14906,-0.0921 0.35118,-0.0379 0.44905,0.12042 0.0979,0.15838 0.57483,0.28834 1.0599,0.28834 0.48507,0 0.81235,-0.11322 0.7271,-0.25114 -0.0853,-0.1379 -0.43225,-0.20572 -0.77102,-0.1509 -0.33877,0.0548 -0.81426,-0.0583 -1.0568,-0.25114 -0.24244,-0.19288 -0.4413,-0.23267 -0.4413,-0.0889 0,0.1438 -0.59531,-0.16574 -1.3229,-0.68784 z m -6.0989,4.6628 c -0.13711,-0.004 -0.34195,0.10237 -0.52141,0.28318 -0.34581,0.34841 -0.30538,0.38886 0.1974,0.19741 0.34793,-0.13248 0.54372,-0.32956 0.43511,-0.4382 -0.0272,-0.0272 -0.0654,-0.041 -0.1111,-0.0424 z m 16.205,7.0296 c 0.42021,0 0.59923,0.15512 0.4527,0.39221 -0.13332,0.21572 -0.0496,0.51097 0.18553,0.6563 0.31522,0.19482 0.28374,0.31949 -0.11991,0.47438 -0.30107,0.11554 -0.66712,0.0186 -0.81338,-0.21548 -0.50782,-0.81254 -0.39632,-1.3074 0.29506,-1.3074 z m -18.558,1.1952 c 0.12612,0.005 0.24783,0.0706 0.31885,0.18553 0.11358,0.18378 0.0562,0.42748 -0.12766,0.54104 -0.18378,0.11362 -0.42694,0.0562 -0.54052,-0.12763 -0.11359,-0.18378 -0.0562,-0.42746 0.12763,-0.54105 0.0689,-0.0426 0.146,-0.061 0.2217,-0.0579 z"
     sodipodi:nodetypes="cccsccccccccsccccccccccccscccccccccsccccscccccccscccccccccccccscsscsccsccccccccccsccccccscccccccscccscscccccsccsccsccccccccscccccccccscsccsccccccccccccsccsccccccccscccsccccccccccscccccccccscscscccccccccsccsccccccccccsccccccccccccscccccccccccccccccccccccsccccccssccccscccccscccccccccccccccccccccccccscscccscscsccccccccscccccccccccssccccsscccccccscccccccccccccsssscccccccccccccccccccccccccscccccccccssccccccccccccccscccccscccccccscccscccccccccccccccccccccc" />
  <rect
     style="opacity:0.98000004;fill:none"
     id="rect104"
     height="150.10001"
     width="150.10001"
     y="8.5449219e-06"
     x="5.4931643e-06" />
</svg>
