<?xml version="1.0" encoding="UTF-8"?>
<!-- Created with Inkscape (http://www.inkscape.org/) -->
<svg version="1.1" viewBox="0 0 40.032738 40.032738" xmlns="http://www.w3.org/2000/svg" xmlns:cc="http://creativecommons.org/ns#" xmlns:dc="http://purl.org/dc/elements/1.1/" xmlns:rdf="http://www.w3.org/1999/02/22-rdf-syntax-ns#">
 <metadata>
  <rdf:RDF>
   <cc:Work rdf:about="">
    <dc:format>image/svg+xml</dc:format>
    <dc:type rdf:resource="http://purl.org/dc/dcmitype/StillImage"/>
    <dc:title/>
   </cc:Work>
  </rdf:RDF>
 </metadata>
 <g transform="translate(-1.8081 71.939)">
  <rect x="1.8081" y="-71.939" width="40.033" height="40.033" fill="none" opacity=".98"/>
  <path d="m18.146-38.196a14.211 14.211 0 0 1 -10.048 -17.404 14.211 14.211 0 0 1 17.404 -10.048 14.211 14.211 0 0 1 10.048 17.404 14.211 14.211 0 0 1 -17.404 10.048z" fill="none" stroke="#c0c0c0" stroke-width=".39984"/>
  <g transform="matrix(.26585 0 0 .26585 95.498 -74.492)" fill="#c0c0c0" stroke-width=".26458" aria-label="KONKURSY ~ ROK MJR DYBOWSKIEGO ~ LEGNICA">
   <path d="m-323.24 120.52-0.40476 0.28145-0.50448-0.72552-4.8877 3.3986 0.50447 0.72551-0.40858 0.2841-1.5479-2.2262 0.40858-0.2841 0.50447 0.72551 2.1574-1.5002-3.8647-0.95514 0.43013 0.61859-0.40858 0.2841-1.3169-1.894 0.40858-0.2841 0.44606 0.64151 3.8518 0.95281 0.83414-4.6416-0.45138-0.64915 0.40476-0.28144 0.92134 1.325-0.82748 4.586 2.3026-1.601-0.50447-0.72552 0.40476-0.28144z"/>
   <path d="m-329.03 112.03q-0.52842-1.0095-1.4903-1.1623-0.96597-0.15058-2.3258 0.56116-1.3639 0.7139-1.7866 1.5913-0.42678 0.87956 0.10164 1.8891 0.53057 1.0136 1.4965 1.1642 0.96185 0.15273 2.3258-0.56117 1.3598-0.71174 1.7866-1.5913 0.42265-0.87741-0.10791-1.8911zm0.44089-0.23077q0.32784 0.62632 0.39788 1.2616 0.0679 0.63115-0.12261 1.24-0.21994 0.70306-0.68643 1.236-0.46865 0.52877-1.2145 0.91915-0.74582 0.39038-1.4474 0.47413-0.70786 0.0818-1.4109-0.13815-0.61518-0.19245-1.0888-0.60596-0.47778-0.41135-0.80992-1.0459-0.70096-1.3392-0.25464-2.6227 0.44632-1.2835 1.8844-2.0362 0.73758-0.38607 1.4496-0.47002 0.70786-0.0818 1.4068 0.14031 0.61518 0.19245 1.093 0.6038 0.47367 0.41351 0.80365 1.044z"/>
   <path d="m-330.7 107.96-0.46414 0.16619-0.31514-0.8801-5.6046 2.0069 0.31514 0.88011-0.46851 0.16776-0.6005-1.677 3.7548-5.7658-4.6895 1.6792 0.31357 0.87573-0.46851 0.16776-0.82157-2.2944 0.46852-0.16777 0.31514 0.88011 6.1958-2.2185 0.18971 0.52982-4.0094 6.1584 4.9172-1.7607-0.31514-0.88011 0.46414-0.16619z"/>
   <path d="m-333.41 100.01-0.4818 0.10448-0.18728-0.86359-5.8179 1.2617 0.18729 0.8636-0.48634 0.10547-0.57467-2.6499 0.48634-0.10547 0.18728 0.86359 2.568-0.55693-3.2019-2.3656 0.15969 0.73633-0.48634 0.10547-0.48892-2.2544 0.48634-0.10547 0.1656 0.7636 3.1908 2.3585 2.5522-3.9657-0.16757-0.77269 0.48179-0.10448 0.34205 1.5772-2.5247 3.9169 2.7408-0.59438-0.18729-0.86359 0.4818-0.10449z"/>
   <path d="m-341.32 93.102 0.0757 0.88509-0.49583 0.04239-0.23136-2.7062 0.49583-0.04239 0.0757 0.88509 3.5774-0.30584q1.3253-0.1133 1.8121-0.58903 0.4864-0.48036 0.39568-1.5415-0.0907-1.0612-0.65121-1.4474-0.56088-0.39083-1.8862-0.27752l-3.5774 0.30584 0.0757 0.88509-0.49583 0.04239-0.19967-2.3355 0.49583-0.04239 0.0753 0.88046 3.6701-0.31377q1.5802-0.13509 2.2855 0.4161t0.82969 2.0063q0.12439 1.4551-0.48054 2.1323-0.60534 0.67258-2.1763 0.80688z"/>
   <path d="m-338.67 81.147q0.10331-0.32113 0.32777-0.54354 0.22002-0.22727 0.60958-0.39549l2.1048-0.91299 0.0391-0.84556 0.49246 0.02277-0.0756 1.6354-2.2569 0.98045q-0.65553 0.28163-0.85339 0.53321-0.20252 0.25136-0.22357 0.70666l-0.0479 1.036 2.7318 0.12632 0.0453-0.98029 0.49247 0.02277-0.12976 2.8061-0.49247-0.02277 0.0408-0.88272-5.9468-0.27499-0.0408 0.88272-0.49711-0.02299 0.16263-3.517q0.0468-1.0128 0.55536-1.5387 0.50874-0.53052 1.3961-0.48949 0.71547 0.03308 1.1103 0.4564 0.39037 0.41845 0.45584 1.2176zm-0.3808 2.1939 0.0634-1.3705q0.0324-0.70153-0.28196-1.0513-0.31903-0.34997-1.0159-0.3822-0.69689-0.03223-1.0422 0.28703-0.34532 0.31925-0.37776 1.0208l-0.0634 1.3705z"/>
   <path d="m-335.27 77.759-1.5602-0.25735 0.0916-0.52696q0.78389 0.10573 1.2306-0.25897 0.44285-0.37004 0.58742-1.2465 0.13473-0.81682-0.1161-1.2966-0.25466-0.4851-0.87415-0.58728-0.4956-0.08175-0.8049 0.13592-0.30854 0.21308-0.69869 1.0066l-0.41986 0.85935q-0.46025 0.93282-0.97198 1.2632-0.51097 0.32581-1.2865 0.19789-0.87189-0.14381-1.2515-0.84279-0.37965-0.69897-0.19496-1.8187 0.0787-0.47724 0.27812-1.0289 0.19482-0.55237 0.4981-1.1623l1.4593 0.2407-0.0855 0.51854q-0.7379-0.04158-1.1265 0.31384-0.39242 0.35008-0.52942 1.1807-0.11959 0.72504 0.11586 1.1551 0.23162 0.42473 0.79605 0.51783 0.49101 0.08099 0.81786-0.15735 0.32685-0.23834 0.75432-1.1153l0.39242-0.80731q0.43358-0.88537 0.93461-1.2081 0.49721-0.32808 1.2268-0.20773 0.99578 0.16425 1.3954 0.88536 0.39956 0.72111 0.19141 1.9831-0.0931 0.56443-0.3047 1.1329-0.21085 0.56386-0.5448 1.131z"/>
   <path d="m-333.53 70.503-0.47486-0.13247 0.23869-0.85565-2.4057-0.67109-3.9046 1.1367-0.17496 0.62718-0.47934-0.13372 0.69358-2.4863 0.47934 0.13372-0.21744 0.77949 3.172-0.91616-2.2397-2.4258-0.20995 0.75261-0.47934-0.13372 0.54237-1.9442 0.47934 0.13372-0.17621 0.63166 2.6823 2.9162 2.4908 0.69483 0.23869-0.85565 0.47486 0.13247z"/>
   <path d="m-331.7 55.392 0.62074 0.29745q0.16811 0.59628 0.16338 1.0582-5e-3 0.46189-0.19164 0.85195-0.19294 0.40264-0.81947 0.99978l-0.0369 0.0339q-0.0389 0.0381-0.12085 0.11228-0.53452 0.50199-0.72545 0.90044-0.1849 0.38587-0.20457 0.82512-0.0219 0.43306 0.12222 0.9611l-0.63752-0.30549q-0.16391-0.59427-0.1528-1.048 9e-3 -0.45988 0.19784-0.85414 0.19295-0.40264 0.81947-0.99978l0.0369-0.0339q0.0389-0.0381 0.11263-0.1059 0.53469-0.49159 0.72965-0.89842 0.1849-0.38587 0.20658-0.82932 0.0217-0.44345-0.12022-0.96529z"/>
   <path d="m-326.38 47.788q0.26331-0.21087 0.57321-0.27257 0.30889-0.0682 0.72661 0.0064l2.2592 0.39949 0.49903-0.68371 0.39821 0.29065-0.96517 1.3223-2.4233-0.42712q-0.70213-0.12669-1.0059-0.026-0.30757 0.09795-0.57628 0.4661l-0.61146 0.83773 2.2089 1.6123 0.57855-0.79265 0.39821 0.29065-1.6561 2.269-0.3982-0.29065 0.52097-0.71376-4.8085-3.5097-0.52097 0.71376-0.40196-0.29339 2.0756-2.8438q0.59774-0.81895 1.312-0.97707 0.71699-0.16188 1.4345 0.36183 0.57852 0.42226 0.67431 0.99312 0.0948 0.56436-0.29144 1.2671zm-1.5278 1.6199 0.80888-1.1082q0.41403-0.56725 0.34473-1.0324-0.0731-0.4679-0.63656-0.87919-0.5635-0.41129-1.0276-0.33549-0.46414 0.0758-0.87817 0.64305l-0.80888 1.1082z"/>
   <path d="m-319.63 44.602q0.78472-0.82619 0.61855-1.7858-0.16954-0.96282-1.2824-2.0198-1.1162-1.0602-2.0831-1.1767-0.97028-0.11977-1.755 0.70642-0.78792 0.82957-0.61838 1.7924 0.16616 0.95962 1.2824 2.0198 1.1128 1.057 2.0831 1.1767 0.9669 0.11657 1.7548-0.713zm0.36082 0.34271q-0.48684 0.51258-1.0654 0.78407-0.57538 0.26812-1.2132 0.28454-0.73642 0.01896-1.3914-0.25038-0.65181-0.27272-1.2622-0.85245-0.61038-0.57973-0.91627-1.2166-0.30607-0.64349-0.32503-1.3799-0.0166-0.64436 0.22175-1.2262 0.23495-0.58505 0.72821-1.1044 1.041-1.096 2.3998-1.0882 1.3589 0.0078 2.5358 1.1256 0.60362 0.57333 0.91306 1.22 0.30607 0.64349 0.32166 1.3767 0.0166 0.64437-0.21837 1.2294-0.23834 0.58184-0.72839 1.0978z"/>
   <path d="m-316.25 41.697-0.31119-0.38236 0.68537-0.55779-3.7578-4.6172-0.68537 0.55779-0.31412-0.38597 2.103-1.7115 0.31413 0.38597-0.68537 0.55779 1.6587 2.0381 0.66074-3.9258-0.58437 0.47559-0.31413-0.38597 1.7892-1.4561 0.31412 0.38597-0.60601 0.49321-0.65939 3.9127 4.6913 0.48143 0.61323-0.49908 0.31119 0.38236-1.2517 1.0187-4.6354-0.479 1.7703 2.1752 0.68537-0.55779 0.31119 0.38236z"/>
   <path d="m-308.19 35.491-0.23079-0.43564 0.78086-0.41367-2.7868-5.2605-0.82607 0.43762-0.23296-0.43975 1.7878-0.94709 4.4679 3.2279-0.16084-5.5096 1.6768-0.8883 0.23296 0.43975-0.81785 0.43326 2.7868 5.2605 0.78497-0.41585 0.23079 0.43564-2.4001 1.2715-0.23078-0.43564 0.78086-0.41367-2.5125-4.7427 0.16226 5.393-0.57948 0.30699-4.3707-3.1636 2.5125 4.7427 0.78086-0.41367 0.23078 0.43564z"/>
   <path d="m-300.1 33.169-0.39632-1.0186 0.49411-0.19226q0.17996 0.42404 0.45163 0.55788 0.27335 0.13818 0.65477-0.01023 0.51578-0.20069 0.59301-0.60503 0.0772-0.40434-0.29043-1.3492l-2.2548-5.795-1.0056 0.39126-0.18045-0.46377 2.709-1.0541 0.18045 0.46377-0.82352 0.32043 2.2683 5.8297q0.41656 1.0706 0.17297 1.7143-0.24358 0.64374-1.1971 1.0148-0.30774 0.11974-0.65281 0.16917-0.34941 0.05112-0.72316 0.02686z"/>
   <path d="m-292.98 25.306q0.33732-0.0039 0.61944 0.13846 0.28532 0.13658 0.56841 0.45268l1.5334 1.7065 0.8143-0.23109 0.13459 0.47426-1.5749 0.44694-1.6456-1.8294q-0.475-0.53237-0.77634-0.64023-0.30262-0.11234-0.74109 0.01209l-0.99774 0.28315 0.74659 2.6308 0.94406-0.26791 0.13459 0.47426-2.7024 0.76691-0.13459-0.47426 0.8501-0.24125-1.6252-5.727-0.85009 0.24125-0.13586-0.47874 3.387-0.96118q0.97537-0.2768 1.6354 0.03869 0.66448 0.31422 0.907 1.1688 0.19554 0.68903-0.0807 1.1977-0.27305 0.50293-1.0102 0.81848zm-2.2014 0.33467 1.3199-0.37457q0.6756-0.19173 0.90759-0.60082 0.23072-0.41356 0.0403-1.0847-0.19046-0.67113-0.60276-0.89738-0.41229-0.22625-1.0879-0.03452l-1.3199 0.37457z"/>
   <path d="m-284.23 26.604 0.86109-0.08288q1.3472-0.12967 1.9908-0.96723 0.64823-0.83801 0.51009-2.2731-0.13814-1.4351-0.92879-2.1253-0.79064-0.69017-2.1424-0.56005l-0.86109 0.08288zm-1.7722 0.66585-0.0472-0.49073 0.8796-0.08466-0.57037-5.9257-0.8796 0.08467-0.0477-0.49536 2.7499-0.26469q1.787-0.172 2.8701 0.6442 1.0878 0.81576 1.2442 2.4407 0.15685 1.6296-0.75489 2.6425t-2.6941 1.1844z"/>
   <path d="m-277.11 26.673 0.0121-0.49284 0.88805 0.02179 0.0613-2.4968-2.0586-3.5072-0.65093-0.01597 0.0122-0.49749 2.5805 0.06333-0.0122 0.49749-0.80901-0.01985 1.6653 2.8508 1.8032-2.7657-0.78111-0.01917 0.0122-0.49749 2.0179 0.04952-0.0122 0.4975-0.65558-0.01609-2.1702 3.315-0.0634 2.5851 0.88806 0.02179-0.0121 0.49284z"/>
   <path d="m-270.21 26.6 1.377 0.19408q0.82896 0.11684 1.2618-0.18851 0.43287-0.30534 0.54322-1.0883 0.1097-0.77831-0.22257-1.1868-0.32701-0.41244-1.1606-0.52993l-1.377-0.19408zm0.49071-3.4817 1.1698 0.16487q0.75528 0.10645 1.1416-0.135 0.3909-0.24081 0.47918-0.86714 0.0889-0.63093-0.22084-0.9658-0.30451-0.33882-1.0598-0.44527l-1.1698-0.16487zm-2.3694 3.7147 0.0688-0.48817 0.87502 0.12333 0.83084-5.8949-0.87502-0.12333 0.0695-0.49277 3.3942 0.47838q1.0408 0.1467 1.5054 0.64899 0.4699 0.49834 0.35047 1.3457-0.0863 0.61251-0.50604 0.92441-0.4151 0.31254-1.1314 0.29613 0.85944 0.23386 1.2472 0.74879 0.39297 0.51098 0.28652 1.2663-0.1441 1.0224-0.85701 1.4151-0.7129 0.39269-2.0807 0.19991z"/>
   <path d="m-261.62 28.425q1.099 0.30078 1.866-0.29939 0.76822-0.60466 1.1734-2.085 0.40636-1.4848 0.0519-2.3919-0.35326-0.91158-1.4523-1.2124-1.1035-0.30201-1.8718 0.30265-0.76699 0.60017-1.1734 2.085-0.40513 1.4804-0.0519 2.3919 0.35448 0.9071 1.458 1.2091zm-0.13136 0.47999q-0.68186-0.18661-1.1947-0.56805-0.50832-0.38021-0.82437-0.93443-0.36492-0.63992-0.43732-1.3444-0.0679-0.7033 0.15431-1.5152t0.63878-1.3827q0.42228-0.57396 1.0622-0.93889 0.55993-0.31931 1.1853-0.38443 0.62661-0.06961 1.3174 0.11946 1.4579 0.399 2.0936 1.6 0.63568 1.201 0.20722 2.7666-0.21976 0.80298-0.64327 1.3814-0.42229 0.57396-1.061 0.9344-0.55993 0.31931-1.1865 0.38891-0.62539 0.06512-1.3117-0.12272z"/>
   <path d="m-251.27 32.688-0.69701-0.30977 0.83957-5.8055-3.7466 4.5136-0.697-0.30977 0.95619-6.6291-0.629-0.27955 0.2021-0.45475 2.3163 1.0294-0.20211 0.45475-0.79051-0.35133-0.76165 5.2752 3.7305-4.5003 0.68851 0.306-0.83957 5.8514 3.4382-4.1518-0.73101-0.32488 0.20211-0.45475 1.8275 0.81221-0.20211 0.45475-0.62476-0.27766z"/>
   <path d="m-248.08 34.006 0.83912-1.3403 0.45087 0.28776q-0.39985 0.68248-0.23562 1.2353 0.17064 0.5513 0.92357 1.0227 0.70168 0.43931 1.241 0.39289 0.54578-0.04789 0.87896-0.58006 0.26654-0.42574 0.18499-0.79505-0.0776-0.36685-0.65932-1.0328l-0.63096-0.71878q-0.68318-0.78439-0.79068-1.3839-0.10356-0.59709 0.31354-1.2633 0.46892-0.74898 1.2602-0.82972 0.79131-0.08073 1.7532 0.52146 0.40997 0.25667 0.84201 0.65337 0.43452 0.39276 0.88028 0.90779l-0.78483 1.2536-0.44545-0.27888q0.32293-0.6648 0.14485-1.1604-0.17167-0.49707-0.88517-0.94378-0.62284-0.38995-1.1104-0.33856-0.4812 0.04991-0.78477 0.53478-0.26408 0.4218-0.17022 0.81528 0.0939 0.39348 0.73813 1.1261l0.59353 0.67339q0.64968 0.74147 0.75424 1.3282 0.11096 0.58527-0.28145 1.2121-0.53556 0.85542-1.355 0.94599-0.81942 0.09057-1.9035-0.58813-0.48487-0.30356-0.92775-0.71802-0.43893-0.41199-0.83341-0.93881z"/>
   <path d="m-243.05 37.606 0.30897-0.38416 0.68859 0.55381 3.731-4.6389-0.68859-0.55381 0.31188-0.38779 2.1129 1.6993-0.31188 0.38779-0.68859-0.55381-1.6469 2.0477 3.9772-0.17344-0.58712-0.4722 0.31189-0.38779 1.7976 1.4457-0.31188 0.38779-0.60886-0.48969-3.9641 0.17202 0.50862 4.6884 0.61611 0.49552-0.30897 0.38416-1.2576-1.0114-0.49931-4.6332-1.7576 2.1854 0.68859 0.55381-0.30897 0.38416z"/>
   <path d="m-235.92 43.091 0.63379 0.61578-0.34354 0.35359-1.9447-1.8895 0.34353-0.35359 0.63379 0.61578 4.1484-4.2697-0.63379-0.61578 0.34678-0.35692 1.9447 1.8895-0.34677 0.35692-0.63379-0.61578z"/>
   <path d="m-234.86 44.775 0.37451-0.3206 0.57466 0.67129 4.5224-3.8714-0.57466-0.67129 0.37804-0.32363 3.6355 4.2468-1.173 1.0041-0.37201-0.43457 0.73842-0.63213-2.0748-2.4237-1.7666 1.5123 1.479 1.7277 0.66069-0.56559 0.37202 0.43457-1.7524 1.5002-0.37201-0.43457 0.66069-0.56559-1.479-1.7277-2.2082 1.8903 2.1232 2.4802 0.73842-0.63213 0.37202 0.43457-1.173 1.0041z"/>
   <path d="m-223.23 52.062q0.63611-0.61503 0.6971-1.2739 0.0649-0.66145-0.44249-1.4299-0.66113-1.0014-1.6308-1.0689-0.96973-0.06755-2.2738 0.79345-1.2769 0.84306-1.5972 1.7846-0.32025 0.94151 0.33063 1.9274 0.28956 0.43858 0.66217 0.7666 0.37261 0.32802 0.82828 0.54548l1.4943-0.98656-0.72006-1.0906 0.41529-0.27419 1.2402 1.8785-2.1619 1.4273q-0.63967-0.3189-1.1857-0.81668-0.53955-0.49646-0.98799-1.1757-0.86612-1.3119-0.56992-2.6443 0.30264-1.3311 1.665-2.2306 1.374-0.90712 2.7118-0.65347 1.3417 0.25109 2.2258 1.5901 0.328 0.4968 0.56007 1.1015 0.2385 0.60605 0.40025 1.3575l-1.374 0.90712z"/>
   <path d="m-224.42 59.369q0.49742 1.0252 1.4542 1.2071 0.96094 0.17992 2.3418-0.49007 1.385-0.67202 1.8342-1.5362 0.45336-0.86616-0.044-1.8913-0.49945-1.0293-1.4604-1.2093-0.95675-0.18196-2.3418 0.49007-1.3808 0.66999-1.8342 1.5362-0.44918 0.86413 0.0503 1.8935zm-0.44772 0.21724q-0.30861-0.63602-0.35927-1.2731-0.0486-0.63292 0.16032-1.2357 0.24125-0.69604 0.72376-1.2145 0.48454-0.51425 1.2419-0.88173 0.75736-0.36748 1.4612-0.42982 0.71003-0.06019 1.4061 0.18106 0.60903 0.2111 1.0699 0.63884 0.46504 0.42571 0.7777 1.0701 0.65984 1.3599 0.17463 2.6292t-1.9455 1.9779q-0.74899 0.36342-1.4632 0.42564-0.71003 0.06019-1.4019-0.18309-0.60903-0.2111-1.0741-0.63681-0.46085-0.42774-0.77148-1.0679z"/>
   <path d="m-216.52 71.647-0.66447 0.17965q-0.51648-0.34215-0.81429-0.69524-0.29781-0.35309-0.4107-0.77063-0.11653-0.43101-0.0314-1.2923l6e-3 -0.04975q5e-3 -0.05424 0.0183-0.16394 0.0775-0.72917-0.0378-1.1557-0.11168-0.41305-0.3834-0.75874-0.26602-0.34242-0.71975-0.64853l0.68243-0.1845q0.51199 0.34336 0.7996 0.69439 0.29333 0.3543 0.40743 0.77634 0.11653 0.43101 0.0314 1.2923l-6e-3 0.04975q-5e-3 0.05424-0.0162 0.15375-0.0844 0.72141 0.0333 1.1569 0.11167 0.41305 0.38461 0.76323 0.27294 0.35018 0.72097 0.65302z"/>
   <path d="m-219.37 77.137 0.49109-0.0433 0.0776 0.88025 5.9301-0.52288-0.0776-0.88025 0.49572-0.04371 0.23815 2.701-0.49572 0.04371-0.0776-0.88025-5.8514 0.51593 0.27859 3.1596 1.1582-0.10212 0.0503 0.56985-1.7281 0.15237z"/>
   <path d="m-218.86 83.446 0.49282 0.01326-0.0238 0.88335 5.951 0.16007 0.0238-0.88335 0.49747 0.01338-0.15032 5.5883-1.5435-0.04152 0.0154-0.57185 0.97168 0.02614 0.0858-3.1893-2.3246-0.06253-0.0611 2.2735 0.8694 0.02339-0.0154 0.57185-2.306-0.06203 0.0154-0.57185 0.8694 0.02339 0.0612-2.2735-2.9058-0.07816-0.0878 3.2637 0.97168 0.02614-0.0154 0.57185-1.5435-0.04152z"/>
   <path d="m-215.12 96.65q0.88433-0.0295 1.3715-0.47728 0.49178-0.44708 0.63092-1.3574 0.1813-1.1862-0.49264-1.8867-0.67394-0.70053-2.2187-0.93664-1.5126-0.23119-2.3816 0.25232-0.86904 0.48351-1.0475 1.6513-0.0794 0.51952-0.023 1.0127 0.0563 0.49322 0.24845 0.96014l1.77 0.27055 0.19747-1.2919 0.49193 0.07519-0.34012 2.2252-2.5608-0.39141q-0.26055-0.66557-0.33163-1.401-0.0672-0.73012 0.0558-1.5347 0.23752-1.554 1.351-2.3436 1.1173-0.78431 2.731-0.53766 1.6275 0.24876 2.4496 1.3342 0.82671 1.0862 0.58428 2.6723-0.09 0.58848-0.32345 1.1927-0.2296 0.60948-0.61366 1.2753l-1.6275-0.24876z"/>
   <path d="m-220.27 97.873 0.47284 0.13952-0.26455 0.89661 5.7098 1.6847 0.26455-0.89661 0.4773 0.14083-0.50409 1.7085-6.4328 2.4419 4.7775 1.4096 0.26323-0.89215 0.4773 0.14083-0.68967 2.3374-0.47731-0.14083 0.26456-0.89661-6.312-1.8624 0.15926-0.53975 6.8699-2.6087-5.0094-1.4781-0.26455 0.89662-0.47284-0.13952z"/>
   <path d="m-223.05 107.75-0.33649 0.81709-0.45585-0.18772 1.0325-2.5072 0.45585 0.18773-0.3365 0.81709 5.5046 2.2669 0.33649-0.8171 0.46015 0.1895-1.0325 2.5072-0.46015-0.1895 0.33649-0.81709z"/>
   <path d="m-225.48 115.7q-0.71595-0.72559-0.821-1.6018-0.10311-0.86988 0.41412-1.8485 0.3173-0.60033 0.79456-1.0057 0.47725-0.40532 1.0869-0.59336 0.70393-0.21713 1.4074-0.13468 0.70536 0.0887 1.4455 0.47993 1.4309 0.75629 1.8699 2.0457 0.44311 1.2916-0.27189 2.6444-0.26514 0.50165-0.69664 0.99954-0.43149 0.4979-1.0443 1.0104l-1.4145-0.7476 0.24558-0.46464q0.85345 0.25643 1.4628-0.0107 0.60719-0.263 1.044-1.0895 0.51941-0.98274 0.0877-1.858-0.42759-0.87305-1.7804-1.588-1.3487-0.71283-2.315-0.57653-0.96222 0.13848-1.4816 1.1212-0.36294 0.68668-0.27281 1.3025 0.0942 0.61794 0.63959 1.1587z"/>
   <path d="m-226.42 118.35-1.4577 2.0906 3.4376 0.84334zm-0.94138-3.049 0.40439 0.28197-0.34847 0.49977 3.8763 5.7191-0.44689 0.64093-6.7093-1.6561-0.39104 0.56081-0.40439-0.28197 1.4444-2.0716 0.4044 0.28196-0.44157 0.6333 1.5838 0.39563 1.6705-2.3958-0.91883-1.3494-0.43625 0.62567-0.4044-0.28197z"/>
  </g>
  <g fill="none" stroke="#c0c0c0">
   <path d="m17.06-34.142a18.408 18.408 0 0 1 -13.016 -22.545 18.408 18.408 0 0 1 22.545 -13.016 18.408 18.408 0 0 1 13.016 22.545 18.408 18.408 0 0 1 -22.545 13.016z" stroke-width=".13102"/>
   <path d="m16.877-33.459a19.115 19.115 0 0 1 -13.516 -23.411 19.115 19.115 0 0 1 23.411 -13.516 19.115 19.115 0 0 1 13.516 23.411 19.115 19.115 0 0 1 -23.411 13.516z" stroke-width=".29722"/>
   <path d="m18.002-37.656a14.77 14.77 0 0 1 -10.444 -18.089 14.77 14.77 0 0 1 18.089 -10.444 14.77 14.77 0 0 1 10.444 18.089 14.77 14.77 0 0 1 -18.089 10.444z" stroke-width=".091977"/>
  </g>
  <path d="m21.968-62.382c-0.69051-0.0068-1.3683 0.0879-1.8994 0.29084-1.2677 0.48439-2.1828 1.2689-2.7737 2.3779-0.7038 1.3209-0.95122 2.3329-0.95122 3.8913 0 1.0311 0.0063 1.0636 0.19426 1.0144 0.18551-0.04852 0.19121-0.09191 0.129-0.96936-0.0583-0.82221-0.04439-0.96126 0.13271-1.3271 0.15252-0.31508 0.31093-0.46754 0.69157-0.66574 0.44485-0.23165 0.33557-0.31236-0.14864-0.10977-0.15713 0.06574-0.16224 0.05145-0.05565-0.15208 0.5853-1.1175 0.83089-1.3072 1.2662-0.97787 0.10012 0.07573 0.24534 0.13964 0.32271 0.14192 0.22001 0.0065 0.9379 0.72278 0.9379 0.93583 0 0.24522 0.06989 0.24171 0.27696-0.01401l0.16622-0.20538 0.12035 0.22476c0.06619 0.12368 0.11724 0.3533 0.11334 0.51023l-0.0072 0.28534 0.17406-0.2128c0.16768-0.20509 0.17615-0.20618 0.23217-0.02967 0.0517 0.1629 0.14345 0.18236 0.82759 0.1764 0.6679-0.0058 0.825 0.02578 1.1914 0.2396 0.23212 0.13545 0.38277 0.2468 0.33479 0.24742-0.04798 5.31e-4 0.04059 0.11711 0.19673 0.25897 0.42766 0.38852 0.64412 0.76101 0.51656 0.88857-0.13254 0.13253-0.5792-0.04936-0.5792-0.23588 0-0.06883-0.12379-0.24389-0.27517-0.38892-0.21423-0.20525-0.3295-0.2501-0.51971-0.20236-0.30056 0.07543-0.25053 0.1699 0.20731 0.39181 0.26228 0.12714 0.30972 0.18038 0.1845 0.20676-0.09275 0.01954-0.22982-0.01534-0.30471-0.07749-0.19414-0.16112-0.18634 0.15451 0.0087 0.3495 0.18896 0.18895 0.13596 0.32835-0.18436 0.4844l-0.2602 0.12666 0.29276 0.17804c0.16104 0.09793 0.35756 0.17805 0.43674 0.17805 0.07917 0 0.11681 0.04411 0.08352 0.09796-0.03327 0.05384-0.01 0.1589 0.05193 0.2334 0.21899 0.26386-0.14248 0.24651-0.66602-0.03187-0.66334-0.35272-1.6045-0.98491-1.7784-1.1947-0.07547-0.09102-0.13724-0.31724-0.13724-0.50268 0-0.29781-0.02992-0.34053-0.25704-0.36667-0.33172-0.03818-0.40528 0.13118-0.57865 1.3348-0.10766 0.74742-0.11141 0.99611-0.01922 1.2661 0.12247 0.35872 0.12983 0.36093 0.59939 0.17818 0.22521-0.08766 0.35029-0.09242 0.46888-0.01758 0.27976 0.17646 0.19067 0.36059-0.18986 0.39208-0.39543 0.03273-0.43878 0.10588-0.16416 0.27738 0.10315 0.06443 0.18752 0.17673 0.18752 0.24948 0 0.31145 0.34095 0.71547 0.72962 0.86481 0.39347 0.15117 0.40587 0.15 0.6347-0.06498l0.23341-0.21926 0.28424 0.32271c0.29236 0.33191 0.64451 0.98016 0.64817 1.1931 0.0049 0.28892-0.28676 0.18856-0.74255-0.25539-0.42897-0.41784-0.53382-0.47427-0.87937-0.473-0.56989 0.0021-0.68675 0.10139-0.48386 0.41104 0.08952 0.13664 0.22718 0.28434 0.30581 0.32834 0.21213 0.11871 0.07302 0.35814-0.24921 0.42891-0.29242 0.06422-0.37523 0.22378-0.30842 0.59417 0.02438 0.13518 0.08674 0.19824 0.16623 0.16774 0.07-0.02687 0.17167 0.03395 0.22585 0.13518 0.05419 0.10125 0.14371 0.18408 0.19893 0.18408 0.05519 0 0.22577 0.10542 0.37903 0.23438 0.15325 0.12895 0.33872 0.23451 0.41214 0.23451 0.07341 0 0.1334 0.06575 0.1334 0.14617 0 0.08041-0.04398 0.119-0.09782 0.08572-0.12539-0.07749-0.37107 0.12409-0.37107 0.30444 0 0.07599 0.08986 0.26418 0.19962 0.41832 0.16802 0.23597 0.19012 0.36061 0.13985 0.78829-0.03416 0.29072-0.02271 0.5079 0.02679 0.5079 0.13141 0-0.02723 0.48856-0.19247 0.5928-0.18782 0.11846-0.59248 0.01465-0.80423-0.20635-0.0917-0.0957-0.32439-0.2248-0.5171-0.28699-0.19271-0.0622-0.37187-0.14793-0.39813-0.19041-0.02624-0.04248-0.22234-0.16819-0.43578-0.27944-0.21343-0.11125-0.46456-0.29497-0.55803-0.4083-0.16776-0.20329-0.16847-0.20153-0.05495 0.13478 0.06327 0.18745 0.17703 0.41694 0.25278 0.50996 0.12384 0.15204 0.12116 0.16286-0.02637 0.10757-0.11683-0.0438-0.16348-0.01499-0.16183 0.09974 0.0024 0.15992 0.53782 0.48935 0.79544 0.48935 0.07344 0 0.17733 0.082 0.23094 0.18216 0.05829 0.10891 0.16973 0.16811 0.27723 0.14741 0.16934-0.03261 0.342 0.17528 0.29976 0.3609-0.01018 0.04448 0.057 0.13806 0.1492 0.20799 0.0922 0.06993 0.12549 0.13279 0.07391 0.13958-0.05159 0.0068 0.01172 0.04808 0.14068 0.09177 0.19376 0.06566 0.16934 0.07522-0.14068 0.0555-0.33262-0.02117-0.37156-0.04833-0.344-0.23973 0.01994-0.1384-6e-3 -0.19301-0.07198-0.15221-0.05661 0.03499-0.07411 0.11013-0.03902 0.16691 0.04206 0.06806 6e-3 0.08118-0.10564 0.03833-0.12582-0.04828-0.14744-0.03429-0.08422 0.05441 0.12747 0.17885 0.09854 0.44406-0.05935 0.54389-0.10189 0.06442-0.10646 0.08879-0.01704 0.08985 0.06752 7.98e-4 0.09486 0.04638 0.06086 0.10139-0.034 0.05502-0.08539 0.07659-0.11417 0.0478-0.02876-0.02877-0.11217-0.0028-0.18532 0.05798-0.1029 0.0854-0.15019 0.08265-0.2091-0.01262-0.09252-0.14968-0.28465-0.04934-0.28465 0.14864 0 0.21576-0.23006 0.09576-0.26446-0.13793-0.01887-0.12835-0.09693-0.20374-0.21102-0.20374-0.1854 0-0.26532-0.32888-0.09492-0.39071 0.04739-0.0172-0.01768-0.15793-0.14453-0.31268l-0.23066-0.28135-0.23259 0.28135c-0.12793 0.15475-0.25739 0.37632-0.28767 0.49238-0.05546 0.21254-0.22228 0.29636-0.22228 0.11169 0-0.05463-0.05072-0.06796-0.11265-0.02967-0.08763 0.05415-0.08763 0.07795 0 0.10716 0.06193 0.02066 0.11265 0.14305 0.11265 0.27202 0 0.26516-0.16654 0.25686-0.3216-0.01609-0.05526-0.09728-0.17433-0.2611-0.26459-0.36392-0.09027-0.1028-0.16417-0.26932-0.16417-0.36997 0-0.22273-0.28867-0.45502-0.42492-0.34194-0.15619 0.12963-0.32313-0.03705-0.26391-0.2635 0.06342-0.2425 0.20143-0.27144 0.28287-0.05921 0.0459 0.1196 0.07243 0.12409 0.13628 0.02337 0.04361-0.0688 0.07999-0.15229 0.08078-0.18547 3e-3 -0.12657-0.29167-0.16477-0.50858-0.06594-0.37934 0.17285-0.65996 0.04254-0.67798-0.31501-0.0086-0.1699-0.04493-0.44618-0.08092-0.61381-0.05257-0.24498-0.03576-0.30472 0.08586-0.30472 0.08322 0 0.1514-0.0371 0.15139-0.08242 0-0.04533 0.12798-0.13537 0.28438-0.20016 0.44195-0.18306 0.267-0.20632-0.24632-0.0327-0.68929 0.23312-0.73368 0.24779-0.83528 0.27421-0.05159 0.01343-0.36811 0.13153-0.70339 0.26254l-0.60956 0.23822 0.72977 0.0047c0.60944 0.0039 0.73868 0.03163 0.78376 0.1687 0.0297 0.09027 0.11279 0.29713 0.18464 0.45968 0.07185 0.16254 0.13065 0.3289 0.13065 0.36983 0 0.04091 0.19618 0.57635 0.43605 1.1897 0.39131 1.0006 0.49514 1.1747 1.0097 1.6934 0.40768 0.41092 0.80374 0.69147 1.3693 0.97032 0.43762 0.21577 0.8801 0.41141 0.98323 0.43468 1.7953 0.37003 3.3313 0.54896 4.9351-0.2147 1.5567-0.76008 3.3035-2.2027 4.2938-3.4156 0.58041-0.71084 0.90867-1.2791 1.0893-1.886 0.10744-0.36097 0.12804-0.37626 0.54719-0.40377 0.52471-0.03443 0.56938-0.17322 0.08394-0.26089-0.42736-0.07718-1.6362-0.37815-2.0867-0.51957-0.44939-0.14107-1.4952-1.2204-1.8141-1.8722-0.23496-0.48025-0.25406-0.60148-0.22928-1.4535l0.02693-0.92966 0.31062 0.03022c0.36538 0.03554 0.5444-0.09077 0.71822-0.5068 0.06987-0.16723 0.2047-0.3823 0.29949-0.47794 0.67114-0.67717 0.82891-1.7507 0.387-2.6328-0.0628-0.12534-0.19168-0.21102-0.31749-0.21102-0.11649 0-0.29491-0.1054-0.39634-0.23438-0.17739-0.2255-0.37037-0.33363-0.25114-0.14068 0.03189 0.05159 0.01327 0.0937-0.04134 0.0937-0.11499 0-0.11972-0.02528-0.04259-0.22627 0.0312-0.0813 0.08914-0.1276 0.12886-0.10304 0.11436 0.07067 0.08668-0.45314-0.03187-0.6031-0.08272-0.10463-0.07983-0.11894 0.01292-0.06319 0.09225 0.05545 0.11597-0.04765 0.1029-0.44759-0.0093-0.2858-0.04216-0.50439-0.07295-0.48577-0.03079 0.01858-0.06107-0.14928-0.06732-0.37313-0.01404-0.50217-0.10964-0.78877-0.20936-0.62742-0.03932 0.06361-0.07006-0.02571-0.07006-0.20387 0-0.31595-0.3897-1.0183-0.52026-0.93762-0.0368 0.02273-0.09745-8e-3 -0.13477-0.06841-0.04238-0.06857-0.02723-0.08466 0.04039-0.04286 0.05955 0.0368 0.10826 0.02729 0.10826-0.02103 0-0.11891-0.23647-0.308-0.31337-0.25058-0.03394 0.02533-0.04059 0.01774-0.0147-0.01675 0.06727-0.08959-0.24359-0.41161-0.33988-0.35211-0.0441 0.02725-0.05767-0.0093-0.03009-0.0812 0.06001-0.15639-0.5725-0.6965-1.1776-1.0055-0.64469-0.3292-1.5534-0.50541-2.4413-0.51408zm3.5079 1.9602c0.09438-0.0046 0.35008 0.08952 0.39401 0.1606 0.05965 0.09651 0.05711 0.0963-0.21802-0.01427-0.11607-0.04666-0.21102-0.10323-0.21102-0.12584 0-0.01309 0.01323-0.01941 0.03503-0.02047zm0.24619 0.52479c0.0029-0.0066 0.03657 0.01774 0.10263 0.06924 0.08212 0.06403 0.17708 0.08862 0.21102 0.05468 0.03394-0.03394 0.06168-0.0125 0.06168 0.04767 0 0.16056-0.1458 0.1334-0.2933-0.05468-0.05694-0.07259-0.08488-0.11025-0.08201-0.11691zm0.32834 0.4061c0.07284 0 0.11078 0.03518 0.08421 0.07816-0.02655 0.04298-0.06451 0.07803-0.08421 0.07803s-0.05751-0.03505-0.08408-0.07803c-0.02655-0.04299 0.01124-0.07816 0.08408-0.07816zm0.46819 0.46806c0.02472 0.0047 0.05671 0.04524 0.08009 0.10619 0.06342 0.16526 0.0093 0.19428-0.08311 0.04465-0.034-0.05502-0.04176-0.12008-0.01718-0.14466 0.0031-0.0031 0.0065-0.0051 0.01018-0.0061 0.0032-7.97e-4 0.0065-7.97e-4 0.01007-1.33e-4zm0.07707 0.41282c0.06242-0.0013 0.12648 0.04149 0.13312 0.12969 0.0073 0.0975-5e-3 0.17735-0.02762 0.17735-0.02257 0-0.04107-0.0447-0.04107-0.09933 0-0.05462-0.04224-0.07322-0.09382-0.04135-0.05159 0.03189-0.09383 0.01779-0.09383-0.03132 0-0.08833 0.0608-0.13376 0.12323-0.13504zm-0.3543 0.06292c0.0095-0.0024 0.01821-6.9e-5 0.02542 0.0072 0.02887 0.02888 6.9e-5 0.10454-0.06402 0.16815-0.09262 0.09194-0.10338 0.08119-0.05248-0.05248 0.02643-0.06937 0.06251-0.11602 0.09108-0.12282zm0.3484 0.35074c0.01492 0.0029 0.03808 0.02971 0.07171 0.08092 0.08209 0.12505 0.10268 0.12505 0.18477 0 0.05079-0.07737 0.09232-0.09843 0.09232-0.04685 0 0.18356-0.15761 0.3541-0.22558 0.24413-0.04443-0.07186-0.11862-0.07484-0.24-0.0099-0.21865 0.11702-0.25647 0.11712-0.32807 0.0013-0.03286-0.05316 0.0047-0.06885 0.08819-0.03682 0.08026 0.0308 0.14563 0.0068 0.14562-0.05358 0-0.06014 0.04211-0.08326 0.0937-0.05138 0.05158 0.03188 0.09455 0.0028 0.09534-0.0647 5.31e-4 -0.04469 0.0071-0.06591 0.02199-0.06306zm-8.1193 0.08092c-0.18114 0-0.17948 0.01127 0.03737 0.24467 0.20543 0.2211 0.48547 0.38998 0.67289 0.40582 0.03869 0.0033 0.07034-0.09535 0.07034-0.21926 0-0.16838-0.07464-0.25126-0.29538-0.3282-0.16244-0.05664-0.38077-0.10304-0.48522-0.10304zm8.1673 0.30168c0.02857 0.0054 0.0047 0.13061-0.07143 0.30787-0.05315 0.12368-0.08232 0.13974-0.08573 0.04698-0.0028-0.07736 0.03573-0.20398 0.08573-0.28136 0.03462-0.05357 0.05846-0.07591 0.07143-0.07349zm0.16115 0.20277c0.0235 0.0042 0.03074 0.0492 0.02404 0.13807-0.01729 0.22945-0.03287 0.24226-0.12103 0.0996-0.03466-0.05607-0.01808-0.14676 0.03668-0.20154 0.02635-0.02634 0.04621-0.03861 0.06031-0.03614zm-0.4954 0.06017c0.01 0.0013 0.01853 0.0051 0.02515 0.0121 0.01715 0.01805-0.02785 0.08735-0.10002 0.15386-0.07217 0.06652-0.1312 0.07956-0.1312 0.02899 0-0.08522 0.13653-0.20389 0.20607-0.19494zm0.76343 0.0338c0.02533 5.32e-4 0.02813 0.03755 0.0041 0.10014-0.06235 0.16247-0.12955 0.19219-0.12955 0.05729 0-0.04853 0.04175-0.11411 0.09274-0.14563 0.01329-0.0083 0.02425-0.01201 0.03271-0.01181zm-0.72043 0.19508c0.02262-5.31e-4 0.06054 0.0062 0.11443 0.02034 0.16017 0.04188 0.18048 0.08037 0.09589 0.1823-0.07185 0.08658-0.07437 0.12928-0.0075 0.12928 0.05485 0 0.12584-0.04225 0.15771-0.09383 0.03188-0.05158 0.10823-0.09311 0.16966-0.09232 0.07837 0.0011 0.08105 0.02199 0.0089 0.07034-0.15892 0.10652-0.24277 0.56297-0.11759 0.64033 0.06742 0.04166 0.0833 0.02611 0.04176-0.04107-0.0368-0.05955-0.01869-0.10826 0.04026-0.10826 0.13473 0 0.07136 0.20986-0.07845 0.25979-0.06122 0.02041-0.13763-0.03143-0.1698-0.11526-0.03337-0.08695-0.14039-0.14064-0.24921-0.12501-0.10491 0.01508-0.20636-0.01831-0.22544-0.07405-0.02174-0.06352 0.07118-0.08573 0.24907-0.05962 0.18472 0.02711 0.28397 0.0013 0.28396-0.07377 0-0.06918-0.07511-0.09575-0.18752-0.06636-0.10311 0.02697-0.21512 0.0043-0.24893-0.05042-0.03396-0.05494-0.01744-0.07221 0.03696-0.0386 0.13603 0.08407 0.22046-0.1734 0.09726-0.2966-0.04423-0.04423-0.04909-0.06613-0.0114-0.06718zm0.52521 0.37643c0.02906-0.0011 0.0893 0.05906 0.14438 0.14727 0.13616 0.21802 0.0908 0.24199-0.07653 0.04039-0.06525-0.07861-0.10051-0.16107-0.07831-0.18326 0.0028-0.0028 0.0063-0.0043 0.0105-0.0044zm-8.6667 0.32738c-0.023-7.98e-4 -0.04582-7.98e-4 -0.06869 5.31e-4 -0.23521 0.01111-0.4628 0.12023-0.66039 0.32409l-0.3113 0.3212 0.38837-0.09864c0.35412-0.08989 0.37389-0.11005 0.2227-0.22874-0.09122-0.07162-0.12371-0.12282-0.07213-0.11389 0.05158 0.0089 0.16838-0.01637 0.25951-0.05619 0.16293-0.07121 0.40174-0.04524 0.77208 0.08394 0.12382 0.0432 0.10794 0.01653-0.04684-0.07845-0.15883-0.09743-0.32238-0.14831-0.48331-0.15373zm8.2053 0.14068c0.03743 1.88e-4 0.0621 0.01521 0.0621 0.043 0 0.04444-0.06331 0.10522-0.14068 0.13491-0.07738 0.02968-0.14068 0.01752-0.14068-0.02693s0.0633-0.10507 0.14068-0.13478c0.02902-0.01113 0.05612-0.01632 0.07858-0.01621zm0.10908 0.24055c0.05159 0 0.157 0.04095 0.23438 0.09095 0.07737 0.05 0.09857 0.09094 0.04698 0.09094-0.05156 0-0.15713-0.04094-0.2345-0.09094-0.07737-0.05-0.09841-0.09095-0.04685-0.09095zm-0.20318 0.13258c0.02852 0.0016 0.03551 0.02007 0.01497 0.0533-0.05508 0.08912-0.23382 0.13173-0.23383 0.05577 0-0.02029 0.06543-0.06202 0.14549-0.09273 0.0313-0.01201 0.05625-0.01723 0.07336-0.01635zm0.5002 0.18752c0.01712-7.98e-4 0.04193 0.0045 0.07322 0.01648 0.16248 0.06233 0.1922 0.12954 0.05729 0.12954-0.04853 0-0.11398-0.04174-0.14549-0.09273-0.02052-0.03323-0.01353-0.05185 0.01497-0.0533zm-8.572 2.66e-4c-0.01289 0.0011-0.02558 0.0054-0.03764 0.01276-0.0562 0.03473-0.02918 0.12879 0.06787 0.23602 0.18978 0.2097 0.21558 0.21784 0.19179 0.061-0.02731-0.18-0.13172-0.31804-0.22201-0.3098zm7.9662 0.04767c0.01616-5.32e-4 0.05202 0.01156 0.10854 0.03325 0.09279 0.03561 0.18642 0.06483 0.20799 0.06483 0.02156 0 0.03916 0.04211 0.03916 0.09369 0 0.13798-0.12166 0.10816-0.27834-0.06827-0.07681-0.08651-0.10431-0.12264-0.07735-0.12351zm-8.6559 0.26213c-0.04155-0.0053-0.04534 0.07018-0.04534 0.26157 0 0.17853 0.0055 0.32464 0.01223 0.32464 0.0068 0 0.08251-0.07749 0.16829-0.17228 0.14568-0.16097 0.1449-0.18242-0.01223-0.32463-0.05951-0.05386-0.09803-0.08613-0.12295-0.0893zm0.08833 0.1665c0.0095-0.0011 0.01994 0.0016 0.03092 0.0083 0.04383 0.02708 0.05537 0.08854 0.02568 0.13656-0.07584 0.1227-0.10536 0.10896-0.10536-0.04919 0-0.05632 0.0202-0.09247 0.04877-0.09561zm10.082 0.1404c0.03581 0.0055 0.08725 0.06024 0.14713 0.17213 0.10699 0.1999 0.16536 0.8242 0.08463 0.90493-0.02978 0.02979-0.07756-0.04251-0.1062-0.16074-0.02863-0.11822-0.09287-0.37327-0.1426-0.56669-0.05924-0.23038-0.04267-0.35866 0.01704-0.34964zm-11.206 0.79888c-0.01221 0.0018-0.02571 0.0058-0.04067 0.01154-0.11534 0.04427-0.13316 0.13723-0.08311 0.43344 0.03504 0.2074 0.0758 0.50816 0.09067 0.66822 0.06345 0.68271 0.16631 1.1808 0.24371 1.1808 0.04573 0 0.08311-0.33758 0.08311-0.75024 0-0.43766-0.03913-0.75037-0.09382-0.75037-0.05159 0-0.09383-0.18852-0.09383-0.41902 0-0.29907-0.02066-0.38767-0.10606-0.37436zm0.59939 5.32e-4c-0.0079-7.98e-4 -0.01529-7.98e-4 -0.02212 1.41e-4 -0.0078 0.0011-0.01488 0.0035-0.0209 0.0073-0.04804 0.02969-0.01576 0.13315 0.07185 0.22997 0.08763 0.09684 0.19883 0.15183 0.24688 0.12214 0.04804-0.02969 0.0155-0.13329-0.07212-0.23012-0.06709-0.07413-0.14785-0.12358-0.2036-0.12941zm-0.02433 0.04273c0.0048-0.0048 0.04281 0.02355 0.11719 0.08187 0.09026 0.0708 0.16417 0.14456 0.16416 0.16404 0 0.07719-0.07709 0.0275-0.19961-0.12873-0.05833-0.07438-0.08657-0.11234-0.08174-0.11718zm1.1254 0.09657c-0.0018-0.0081-0.08599 0.06648-0.25854 0.22723-0.35854 0.33397-0.39742 0.41306-0.39209 0.79722 0.0055 0.39151 0.01443 0.40716 0.10895 0.19192 0.05663-0.12896 0.10669-0.34773 0.11128-0.48619 0.0046-0.13876 0.1343-0.39132 0.28905-0.56271 0.09468-0.10487 0.14288-0.16117 0.14136-0.16747zm8.505 0.02034c0.08905 0.0055 0.20186 0.09301 0.32779 0.26184 0.16557 0.222 0.16776 0.26163 0.03214 0.5862-0.17273 0.4134-0.30402 0.44383-0.38851 0.09012-0.03389-0.14185-0.09432-0.30012-0.13422-0.3517-0.0399-0.05158-0.04983-0.21185-0.02212-0.35623 0.03055-0.15918 0.09586-0.23575 0.18492-0.23025zm-5.2718 0.53867c0.1416 0.0073 0.37116 0.13973 0.58867 0.36488 0.19337 0.20017 0.42864 0.58387 0.52274 0.85272 0.19703 0.56299 0.17644 0.67451-0.05125 0.27778-0.08691-0.15141-0.21579-0.27531-0.28644-0.27531-0.15325 0-0.91193-0.9077-0.91194-1.0911 0-0.09274 0.05325-0.13339 0.13821-0.129zm-3.843 1.2362c-0.01303-0.0024-0.02235 0.07659-0.02307 0.21844-0.0011 0.20633 0.01734 0.30178 0.04081 0.21212 0.02348-0.08966 0.02443-0.25852 0.0018-0.37519-7e-3 -0.03646-0.01372-0.05428-0.01964-0.05536zm0.82662 1.5784c-0.077 0-0.30885 0.58333-0.26198 0.65915 0.09071 0.14679 0.13829 0.1046 0.07322-0.06497-0.03999-0.10423-0.02379-0.13373 0.04876-0.08889 0.07322 0.04525 0.08846 0.01462 0.04685-0.09383-0.03552-0.09258-0.02366-0.13738 0.02788-0.10551 0.04929 0.03047 0.08958-0.02592 0.08958-0.1253 0-0.09937-0.01093-0.18066-0.02433-0.18066zm7.6602 1.1723 0.19673 0.41022c0.26332 0.54934 0.28824 1.6379 0.05454 2.3798-0.09342 0.29659-0.21196 0.53935-0.26336 0.53935-0.05139 0-0.07133-0.07389-0.04438-0.16416 0.16512-0.5529 0.23191-2.0466 0.12268-2.7432zm-7.6426 1.2526 0.3201 0.28424c0.17602 0.15632 0.35245 0.26408 0.39208 0.23959 0.03963-0.02449 0.09336-0.01007 0.11938 0.03201 0.02603 0.0421 0.15282 0.07665 0.28177 0.07665s0.21596-0.0301 0.1933-0.06676c-0.02268-0.03666-0.11491-0.05468-0.20497-0.04012-0.09006 0.01457-0.21647-0.0155-0.28095-0.06676-0.06446-0.05128-0.11732-0.06185-0.11732-0.02363s-0.15826-0.04407-0.35169-0.18286zm-1.6214 1.2396c-0.03645-0.0011-0.0909 0.02722-0.13862 0.07528-0.09193 0.09262-0.08119 0.10338 0.05248 0.05248 0.09249-0.03521 0.14455-0.08762 0.11567-0.11649-0.0072-0.0072-0.01738-0.0109-0.02953-0.01127zm4.3081 1.8688c0.11171 0 0.1593 0.04124 0.12035 0.10427-0.03544 0.05735-0.01319 0.13584 0.04933 0.17448 0.0838 0.05179 0.07543 0.08494-0.03188 0.12611-0.08004 0.03071-0.17735 0.0049-0.21624-0.05729-0.135-0.21601-0.10536-0.34757 0.07844-0.34757zm-4.9335 0.31776c0.03353 0.0013 0.06588 0.01876 0.08477 0.04933 0.0302 0.04886 0.01494 0.11364-0.03394 0.14383-0.04885 0.03021-0.1135 0.01494-0.1437-0.03393-0.0302-0.04886-0.01494-0.11364 0.03393-0.14384 0.01831-0.01133 0.03881-0.01621 0.05894-0.01539z" fill="#c0c0c0" opacity=".98"/>
  <g transform="matrix(.20359 0 0 .20359 78.987 -65.294)" fill="#c0c0c0" stroke-width=".26458" aria-label="2017">
   <path d="m-290.46 144.31h-0.57878v-1.3746q0.55294-0.29456 1.111-0.44959 0.56328-0.15503 1.1007-0.15503 1.2041 0 1.9017 0.58395 0.69763 0.58394 0.69763 1.5865 0 1.1317-1.5813 2.7078-0.12403 0.11885-0.18604 0.18087l-1.9482 1.9482h3.2194v-0.95085h0.60462v1.7983h-4.9764v-0.56327l2.3409-2.3358q0.77515-0.77514 1.1059-1.4211 0.33072-0.65112 0.33072-1.3643 0-0.78031-0.40824-1.2196-0.40308-0.43925-1.1162-0.43925-0.73897 0-1.142 0.3669-0.40308 0.36691-0.47542 1.1007z"/>
   <path d="m-281.71 149.82q0.79065 0 1.1834-0.86817 0.39274-0.86816 0.39274-2.62 0-1.757-0.39274-2.6252-0.39274-0.86816-1.1834-0.86816t-1.1834 0.86816q-0.39274 0.86817-0.39274 2.6252 0 1.7518 0.39274 2.62 0.39274 0.86817 1.1834 0.86817zm0 0.51159q-1.2557 0-1.9637-1.0542-0.7028-1.0542-0.7028-2.9456 0-1.8965 0.7028-2.9507 0.70797-1.0542 1.9637-1.0542 1.2609 0 1.9637 1.0542t0.7028 2.9507q0 1.8914-0.7028 2.9456t-1.9637 1.0542z"/>
   <path d="m-276.83 150.19v-0.54777h1.3436v-6.4182l-1.5555 1.0077v-0.67696l1.881-1.2196h0.71314v7.307h1.3436v0.54777z"/>
   <path d="m-265.63 143-3.0179 7.1882h-0.76998l2.8784-6.8678h-3.5657v0.95085h-0.60461v-1.7983h5.0798z"/>
  </g>
 </g>
</svg>
