<?xml version="1.0" encoding="UTF-8" standalone="no"?>
<!-- Created with Inkscape (http://www.inkscape.org/) -->

<svg
   xmlns:dc="http://purl.org/dc/elements/1.1/"
   xmlns:cc="http://creativecommons.org/ns#"
   xmlns:rdf="http://www.w3.org/1999/02/22-rdf-syntax-ns#"
   xmlns:svg="http://www.w3.org/2000/svg"
   xmlns="http://www.w3.org/2000/svg"
   xmlns:sodipodi="http://sodipodi.sourceforge.net/DTD/sodipodi-0.dtd"
   xmlns:inkscape="http://www.inkscape.org/namespaces/inkscape"
   version="1.1"
   viewBox="0 0 151.15773 151.15773"
   id="svg118"
   sodipodi:docname="logo-plastyczny.svg"
   inkscape:version="0.92.0 r"
   inkscape:export-filename="/home/zombiak/konkursy-legnica/konkursy-legnica.github.io/img/logo-plastyczny.png"
   inkscape:export-xdpi="206.73801"
   inkscape:export-ydpi="206.73801">
  <defs
     id="defs122" />
  <sodipodi:namedview
     pagecolor="#000000"
     bordercolor="#666666"
     borderopacity="1"
     objecttolerance="10"
     gridtolerance="10"
     guidetolerance="10"
     inkscape:pageopacity="0"
     inkscape:pageshadow="2"
     inkscape:window-width="1280"
     inkscape:window-height="995"
     id="namedview120"
     showgrid="false"
     inkscape:zoom="2.2079876"
     inkscape:cx="42.545708"
     inkscape:cy="18.36733"
     inkscape:window-x="0"
     inkscape:window-y="0"
     inkscape:window-maximized="1"
     inkscape:current-layer="svg118" />
  <metadata
     id="metadata2">
    <rdf:RDF>
      <cc:Work
         rdf:about="">
        <dc:format>image/svg+xml</dc:format>
        <dc:type
           rdf:resource="http://purl.org/dc/dcmitype/StillImage" />
        <dc:title></dc:title>
      </cc:Work>
    </rdf:RDF>
  </metadata>
  <path
     style="fill:none;stroke:#c0c0c0;stroke-width:1.50399995"
     inkscape:connector-curvature="0"
     id="path4"
     d="M 61.744,127.21 A 53.454,53.454 0 0 1 23.946,61.743 53.454,53.454 0 0 1 89.413,23.945 53.454,53.454 0 0 1 127.211,89.412 53.454,53.454 0 0 1 61.744,127.21 Z" />
  <g
     style="fill:#c0c0c0;stroke-width:0.26458001"
     id="g92"
     aria-label="KONKURS PLASTYCZNY ~ ROK MJR DYBOWSKIEGO ~ LEGNICA"
     transform="rotate(-1.9124566,-379.94434,-10488.395)">
    <path
       inkscape:connector-curvature="0"
       id="path6"
       d="m -299.13,138.87 -0.20826,0.44684 -0.80095,-0.3733 -2.5149,5.3958 0.80094,0.3733 -0.21022,0.45106 -2.4576,-1.1454 0.21023,-0.45106 0.80094,0.3733 1.1101,-2.3818 -3.8206,1.1184 0.68291,0.31829 -0.21023,0.45106 -2.0909,-0.97452 0.21023,-0.45106 0.70821,0.33008 3.8083,-1.1139 -1.6138,-4.4312 -0.71663,-0.33401 0.20826,-0.44684 1.4628,0.68177 1.5916,4.3798 1.1848,-2.5419 -0.80095,-0.37331 0.20827,-0.44684 z" />
    <path
       inkscape:connector-curvature="0"
       id="path8"
       d="m -308.39,134.43 q -0.96349,-0.60834 -1.8722,-0.25804 -0.9112,0.35424 -1.7306,1.652 -0.82187,1.3017 -0.74744,2.2727 0.072,0.97499 1.0354,1.5833 0.96743,0.61082 1.8786,0.25659 0.90872,-0.35031 1.7306,-1.652 0.81939,-1.2978 0.74744,-2.2727 -0.0744,-0.97106 -1.0418,-1.5819 z m 0.26568,-0.42079 q 0.59776,0.37741 0.97698,0.89187 0.37529,0.51197 0.5159,1.1343 0.16236,0.71855 0.0261,1.4136 -0.14023,0.69251 -0.58965,1.4043 -0.44943,0.7118 -1.0144,1.1362 -0.57136,0.4258 -1.2899,0.58815 -0.62873,0.14206 -1.2459,0.0219 -0.61966,-0.11622 -1.2253,-0.49861 -1.2781,-0.80697 -1.5357,-2.1412 -0.25764,-1.3342 0.60893,-2.7067 0.44446,-0.70394 1.0183,-1.1337 0.57136,-0.4258 1.2874,-0.58422 0.62873,-0.14206 1.2484,-0.0258 0.61717,0.12016 1.2189,0.50006 z" />
    <path
       inkscape:connector-curvature="0"
       id="path10"
       d="m -311.88,131.75 -0.31857,0.37623 -0.71343,-0.60409 -3.8469,4.5432 0.71342,0.60409 -0.32158,0.37978 -1.3594,-1.1511 0.36369,-6.871 -3.2188,3.8014 0.70988,0.60108 -0.32158,0.37979 -1.8599,-1.5748 0.32159,-0.37979 0.71342,0.60409 4.2527,-5.0224 0.42948,0.36365 -0.38761,7.3383 3.3751,-3.986 -0.71343,-0.60409 0.31858,-0.37623 z" />
    <path
       inkscape:connector-curvature="0"
       id="path12"
       d="m -318.21,126.23 -0.36462,0.3318 -0.59474,-0.65357 -4.403,4.0067 0.59474,0.65357 -0.36807,0.33493 -1.8249,-2.0054 0.36806,-0.33493 0.59474,0.65357 1.9435,-1.7686 -3.9562,-0.44325 0.50709,0.55726 -0.36806,0.33493 -1.5526,-1.7062 0.36806,-0.33493 0.52588,0.57789 3.9431,0.44263 0.222,-4.7107 -0.53213,-0.58477 0.36462,-0.33181 1.0862,1.1936 -0.22266,4.6547 2.0742,-1.8875 -0.59473,-0.65357 0.36462,-0.3318 z" />
    <path
       inkscape:connector-curvature="0"
       id="path14"
       d="m -328.51,124.22 0.51001,0.72733 -0.40746,0.28571 -1.5594,-2.2239 0.40745,-0.28572 0.51001,0.72733 2.9398,-2.0614 q 1.0891,-0.76368 1.2711,-1.4196 0.1793,-0.65969 -0.43217,-1.5317 -0.61148,-0.87203 -1.2901,-0.92444 -0.6813,-0.0562 -1.7704,0.70746 l -2.9398,2.0614 0.51,0.72732 -0.40745,0.28571 -1.3458,-1.9192 0.40746,-0.28571 0.50733,0.72352 3.0159,-2.1148 q 1.2985,-0.91054 2.1852,-0.78819 0.8867,0.12235 1.7252,1.318 0.83844,1.1957 0.65552,2.0852 -0.1856,0.88563 -1.4765,1.7908 z" />
    <path
       inkscape:connector-curvature="0"
       id="path16"
       d="m -332.23,112.56 q -0.0725,-0.32946 0.009,-0.63465 0.0756,-0.30715 0.32747,-0.64867 l 1.3586,-1.8487 -0.39204,-0.7502 0.43693,-0.22833 0.75823,1.4509 -1.456,1.9836 q -0.4245,0.57343 -0.46875,0.89043 -0.0484,0.31914 0.16272,0.7231 l 0.48036,0.9192 2.4237,-1.2666 -0.45451,-0.86974 0.43693,-0.22833 1.3011,2.4897 -0.43693,0.22833 -0.40927,-0.78317 -5.2761,2.7572 0.40927,0.78317 -0.44105,0.23049 -1.6306,-3.1203 q -0.46958,-0.89859 -0.29508,-1.609 0.17235,-0.71454 0.95965,-1.126 0.63478,-0.33172 1.189,-0.16483 0.54798,0.16494 1.007,0.8224 z m 0.77587,2.0872 -0.63545,-1.216 q -0.32527,-0.62242 -0.77302,-0.76626 -0.45188,-0.14169 -1.0702,0.18142 -0.6183,0.32312 -0.75586,0.77284 -0.13757,0.44972 0.1877,1.0721 l 0.63545,1.216 z" />
    <path
       inkscape:connector-curvature="0"
       id="path18"
       d="m -331,107.92 -1.4776,0.56316 -0.18614,-0.50144 q 0.73053,-0.30331 0.93286,-0.8433 0.19633,-0.54268 -0.12003,-1.3728 -0.29483,-0.77358 -0.75309,-1.0618 -0.46426,-0.29091 -1.051,-0.0673 -0.46936,0.17889 -0.62701,0.52267 -0.15931,0.33944 -0.0969,1.2215 l 0.0699,0.95388 q 0.072,1.0377 -0.20383,1.5808 -0.27745,0.53876 -1.0119,0.81868 -0.82573,0.31471 -1.5057,-0.0981 -0.67993,-0.41279 -1.0841,-1.4732 -0.17226,-0.45198 -0.27769,-1.029 -0.10978,-0.57534 -0.15479,-1.255 l 1.382,-0.52672 0.18717,0.4911 q -0.6585,0.33558 -0.8153,0.83831 -0.16281,0.50004 0.13699,1.2867 0.2617,0.68666 0.68166,0.93971 0.41396,0.25036 0.94851,0.0466 0.46502,-0.17723 0.62743,-0.54771 0.16241,-0.37049 0.0902,-1.3434 l -0.0674,-0.8951 q -0.0711,-0.98326 0.19928,-1.5144 0.26442,-0.53379 0.95542,-0.79715 0.94307,-0.35942 1.6514,0.0625 0.70828,0.42189 1.1638,1.617 0.20372,0.53455 0.30709,1.1322 0.1017,0.59335 0.0987,1.2515 z" />
    <path
       inkscape:connector-curvature="0"
       id="path20"
       d="m -337.47,97.999 -0.24437,-1.2033 q -0.13791,-0.67912 -0.57474,-0.96058 -0.44138,-0.28054 -1.1342,-0.13984 -0.69735,0.14162 -0.98978,0.57118 -0.29243,0.42956 -0.15451,1.1087 l 0.24436,1.2033 z m 3.8277,1.0878 -0.48313,0.09812 -0.17587,-0.86599 -5.834,1.1848 0.17587,0.86598 -0.48769,0.0991 -0.65349,-3.2178 q -0.20734,-1.021 0.191,-1.7236 0.39378,-0.70167 1.2734,-0.88032 0.87511,-0.17772 1.516,0.31384 0.64085,0.49156 0.84819,1.5125 l 0.28972,1.4266 2.4931,-0.50631 -0.21381,-1.0529 0.48313,-0.09811 z" />
    <path
       inkscape:connector-curvature="0"
       id="path22"
       d="m -334.86,92.782 -0.491,0.04435 -0.0795,-0.88008 -5.929,0.5356 0.0795,0.88008 -0.49563,0.04477 -0.24394,-2.7005 0.49562,-0.04477 0.0795,0.88008 5.8502,-0.52848 -0.28537,-3.159 -1.158,0.10461 -0.0515,-0.56974 1.7277,-0.15608 z" />
    <path
       inkscape:connector-curvature="0"
       id="path24"
       d="m -337.87,85.032 0.0615,-2.5479 -3.3319,1.1943 z m 2.4681,2.0228 -0.49285,-0.01189 0.0147,-0.60909 -6.3892,-2.6291 0.0188,-0.78112 6.5087,-2.3227 0.0165,-0.68348 0.49285,0.01189 -0.0609,2.5247 -0.49285,-0.01189 0.0186,-0.77182 -1.5391,0.54441 -0.0704,2.9199 1.511,0.61797 0.0184,-0.76252 0.49285,0.01189 z" />
    <path
       inkscape:connector-curvature="0"
       id="path26"
       d="m -335.43,79.19 -1.566,-0.21934 0.0788,-0.52904 q 0.78623,0.08664 1.2239,-0.28881 0.43372,-0.3807 0.55694,-1.2604 0.11483,-0.81985 -0.14759,-1.2934 -0.26638,-0.47876 -0.88818,-0.56585 -0.49744,-0.06967 -0.80136,0.15545 -0.30327,0.22052 -0.674,1.0233 l -0.39884,0.8693 q -0.43743,0.94374 -0.94098,1.2865 -0.5029,0.33814 -1.2813,0.22912 -0.87512,-0.12257 -1.2716,-0.81211 -0.39654,-0.68954 -0.23913,-1.8134 0.0671,-0.47902 0.25302,-1.0353 0.18132,-0.55694 0.46969,-1.174 l 1.4647,0.20514 -0.0729,0.52047 q -0.7387,-0.02363 -1.1185,0.34114 -0.38379,0.35952 -0.50056,1.1932 -0.10192,0.72774 0.14392,1.152 0.24188,0.41897 0.80841,0.49832 0.49283,0.06903 0.81379,-0.17719 0.32096,-0.24622 0.72698,-1.1333 l 0.37267,-0.81661 q 0.41192,-0.89565 0.90496,-1.2305 0.48908,-0.34008 1.2214,-0.2375 0.99948,0.13999 1.4165,0.85117 0.41698,0.71118 0.23957,1.9778 -0.0793,0.56653 -0.27707,1.14 -0.19707,0.56882 -0.51713,1.1439 z" />
    <path
       inkscape:connector-curvature="0"
       id="path28"
       d="m -333.87,71.876 -0.47786,-0.12119 0.21836,-0.86106 -5.7164,-1.4497 -0.5019,1.9791 1.0504,0.26638 -0.14063,0.5545 -1.5869,-0.40243 1.516,-5.9778 1.5869,0.40243 -0.14062,0.5545 -1.0504,-0.26638 -0.50189,1.9791 5.7164,1.4497 0.21837,-0.86106 0.47786,0.12119 z" />
    <path
       inkscape:connector-curvature="0"
       id="path30"
       d="m -332.12,65.78 -0.46225,-0.17138 0.30881,-0.83292 -2.3418,-0.86821 -3.9854,0.80907 -0.22635,0.61051 -0.46661,-0.173 0.89732,-2.4203 0.4666,0.173 -0.28132,0.75878 3.237,-0.65005 -2.0309,-2.6031 -0.27162,0.73262 -0.4666,-0.173 0.70168,-1.8926 0.46661,0.173 -0.22797,0.61488 2.4313,3.1286 2.4246,0.89893 0.3088,-0.83292 0.46225,0.17138 z" />
    <path
       inkscape:connector-curvature="0"
       id="path32"
       d="m -329.23,54.89 q 0.727,0.71452 0.84549,1.589 0.11646,0.8682 -0.3857,1.8546 -0.30805,0.60513 -0.77902,1.0177 -0.47098,0.4126 -1.0777,0.60998 -0.70052,0.2279 -1.4051,0.15626 -0.70663,-0.0779 -1.4527,-0.45768 -1.4424,-0.73425 -1.9011,-2.0168 -0.46289,-1.2846 0.23127,-2.6482 0.25741,-0.50566 0.68121,-1.0101 0.4238,-0.50446 1.0287,-1.0263 l 1.4258,0.72581 -0.23842,0.46836 q -0.85728,-0.24331 -1.4625,0.03313 -0.60308,0.27229 -1.0272,1.1054 -0.50426,0.9906 -0.0592,1.8591 0.44094,0.86638 1.8046,1.5605 1.3595,0.69205 2.3236,0.54093 0.95998,-0.15323 1.4642,-1.1438 0.35235,-0.69217 0.25279,-1.3065 -0.10371,-0.61642 -0.65731,-1.1487 z" />
    <path
       inkscape:connector-curvature="0"
       id="path34"
       d="m -327.07,54.857 -0.27801,-0.18667 -2.6007,-6.9561 -2.0015,2.9809 0.86105,0.57815 -0.31889,0.47493 -1.336,-0.89704 3.0593,-4.5562 0.278,0.18667 2.6007,6.9561 2.1882,-3.2589 -0.807,-0.54186 0.3163,-0.47107 1.2819,0.86075 z" />
    <path
       inkscape:connector-curvature="0"
       id="path36"
       d="m -323.35,49.323 -0.37053,-0.3252 0.61665,-0.7026 -4.4743,-3.9269 -0.61665,0.7026 -0.37402,-0.32826 1.175,-1.3388 6.8635,0.48547 -3.7437,-3.2857 -0.61358,0.69911 -0.37402,-0.32826 1.6076,-1.8317 0.37403,0.32826 -0.61665,0.7026 4.9462,4.3411 -0.37122,0.42296 -7.3303,-0.51767 3.9255,3.4452 0.61664,-0.7026 0.37053,0.3252 z" />
    <path
       inkscape:connector-curvature="0"
       id="path38"
       d="m -316.76,42.254 -0.32691,-0.36902 0.66493,-0.58905 -1.6561,-1.8695 -3.8963,-1.1649 -0.48738,0.43176 -0.32999,-0.3725 1.9321,-1.7116 0.32999,0.3725 -0.60575,0.53662 3.1613,0.95235 -0.56424,-3.253 -0.58486,0.51812 -0.32999,-0.3725 1.5109,-1.3385 0.32999,0.3725 -0.49086,0.43485 0.66974,3.9052 1.7147,1.9356 0.66493,-0.58905 0.3269,0.36902 z" />
    <path
       inkscape:connector-curvature="0"
       id="path40"
       d="m -307.02,30.556 0.36049,0.58638 q -0.18186,0.59224 -0.43614,0.97786 -0.25429,0.38562 -0.62276,0.61215 -0.38035,0.23383 -1.2305,0.39616 l -0.0494,0.0085 q -0.0533,0.01094 -0.16241,0.02887 -0.72126,0.13222 -1.0977,0.36362 -0.3645,0.22409 -0.61908,0.5826 -0.25305,0.35211 -0.41812,0.87397 l -0.37023,-0.60223 q 0.18429,-0.58827 0.43949,-0.96354 0.25671,-0.38166 0.62915,-0.61062 0.38035,-0.23383 1.2305,-0.39616 l 0.0494,-0.0085 q 0.0533,-0.01094 0.15205,-0.02796 0.71577,-0.12339 1.1001,-0.35965 0.36451,-0.22409 0.62305,-0.58503 0.25853,-0.36094 0.42208,-0.8764 z" />
    <path
       inkscape:connector-curvature="0"
       id="path42"
       d="m -298.44,27.04 q 0.3355,-0.03521 0.62962,0.08028 0.29678,0.10947 0.60802,0.39789 l 1.6854,1.5566 0.78931,-0.30577 0.17808,0.4597 -1.5266,0.59138 -1.8085,-1.6685 q -0.52242,-0.48592 -0.83248,-0.56531 -0.31175,-0.08373 -0.73676,0.08092 l -0.96711,0.37466 0.98788,2.5501 0.91507,-0.3545 0.17809,0.4597 -2.6194,1.0148 -0.17809,-0.4597 0.824,-0.31921 -2.1505,-5.5511 -0.824,0.31921 -0.17977,-0.46404 3.283,-1.2718 q 0.94543,-0.36626 1.6319,-0.11347 0.69081,0.2511 1.0117,1.0794 0.25873,0.66787 0.031,1.2 -0.22512,0.52613 -0.92976,0.90883 z m -2.1608,0.53782 1.2794,-0.49562 q 0.65486,-0.25369 0.84782,-0.68257 0.19129,-0.43322 -0.0607,-1.0837 -0.25201,-0.65052 -0.68355,-0.83747 -0.43153,-0.18695 -1.0864,0.06674 l -1.2794,0.49562 z" />
    <path
       inkscape:connector-curvature="0"
       id="path44"
       d="m -291.04,28.001 q 1.1067,-0.27147 1.4851,-1.1688 0.37736,-0.90187 0.0117,-2.3925 -0.36676,-1.4951 -1.1175,-2.1155 -0.75188,-0.62486 -1.8585,-0.35339 -1.1112,0.27258 -1.4885,1.1744 -0.37847,0.89736 -0.0117,2.3925 0.36565,1.4906 1.1175,2.1155 0.75077,0.62034 1.8619,0.34777 z m 0.11856,0.48332 q -0.68658,0.16842 -1.3202,0.0844 -0.62905,-0.08513 -1.1747,-0.41579 -0.63,-0.3818 -1.0358,-0.96226 -0.40126,-0.58157 -0.60182,-1.3991 -0.20055,-0.81757 -0.11398,-1.5188 0.09,-0.70687 0.47178,-1.3369 0.33408,-0.55125 0.84892,-0.91219 0.51374,-0.36546 1.2094,-0.5361 1.468,-0.36011 2.6074,0.38039 1.1394,0.7405 1.5261,2.3169 0.19834,0.80854 0.10947,1.5199 -0.09,0.70687 -0.47289,1.3324 -0.33408,0.55125 -0.84781,0.91671 -0.51484,0.36094 -1.2059,0.53047 z" />
    <path
       inkscape:connector-curvature="0"
       id="path46"
       d="m -286.63,27.384 -0.0548,-0.48994 0.87819,-0.09823 -0.66178,-5.9162 -0.87819,0.09823 -0.0553,-0.49456 2.6946,-0.30142 0.0553,0.49456 -0.87819,0.09823 0.29211,2.6115 2.6799,-2.9439 -0.74878,0.08376 -0.0553,-0.49456 2.2925,-0.25644 0.0553,0.49456 -0.7765,0.08686 -2.6717,2.9336 3.6847,2.9433 0.78575,-0.08789 0.0548,0.48994 -1.6039,0.1794 -3.639,-2.911 0.31176,2.7871 0.87819,-0.09823 0.0548,0.48994 z" />
    <path
       inkscape:connector-curvature="0"
       id="path48"
       d="m -276.49,26.531 0.0426,-0.49115 0.88036,0.07641 0.51474,-5.9308 -0.93132,-0.08083 0.043,-0.49578 2.0156,0.17493 2.0005,5.1361 2.8554,-4.7146 1.8904,0.16407 -0.043,0.49578 -0.92206,-0.08003 -0.51474,5.9308 0.88499,0.07681 -0.0426,0.49115 -2.706,-0.23485 0.0426,-0.49115 0.88036,0.07641 0.46407,-5.347 -2.791,4.6175 -0.65332,-0.0567 -1.9537,-5.0293 -0.46407,5.347 0.88035,0.07641 -0.0426,0.49115 z" />
    <path
       inkscape:connector-curvature="0"
       id="path50"
       d="m -268.44,28.971 0.21932,-1.0707 0.51942,0.1064 q -0.0787,0.45387 0.077,0.71364 0.15474,0.26432 0.55569,0.34646 0.5422,0.11106 0.82634,-0.18679 0.28415,-0.29786 0.48761,-1.2911 l 1.2478,-6.0917 -1.057,-0.21653 0.0999,-0.48752 2.8477,0.58332 -0.0999,0.48752 -0.8657,-0.17733 -1.2553,6.1282 q -0.23052,1.1254 -0.78426,1.5342 -0.55374,0.4088 -1.5561,0.20346 -0.32349,-0.06627 -0.64023,-0.21185 -0.3213,-0.14652 -0.62217,-0.36957 z" />
    <path
       inkscape:connector-curvature="0"
       id="path52"
       d="m -258.19,26.221 q 0.28574,0.17931 0.44594,0.45168 0.166,0.26927 0.23296,0.68828 l 0.3658,2.2649 0.8098,0.2464 -0.14351,0.47164 -1.5662,-0.47655 -0.39366,-2.4289 q -0.11129,-0.70473 -0.30631,-0.95853 -0.19366,-0.25824 -0.62971,-0.39092 l -0.99223,-0.3019 -0.79605,2.6163 0.93884,0.28566 -0.14351,0.47164 -2.6875,-0.81771 0.1435,-0.47164 0.8454,0.25723 1.7329,-5.6953 -0.8454,-0.25723 0.14486,-0.47609 3.3682,1.0248 q 0.96999,0.29513 1.3542,0.91763 0.38869,0.62385 0.13011,1.4737 -0.20849,0.68522 -0.71609,0.96344 -0.50179,0.27512 -1.2924,0.14151 z m -2.0323,-0.91004 1.3126,0.39938 q 0.67187,0.20443 1.0884,-0.01401 0.41783,-0.22289 0.62091,-0.89031 0.20307,-0.66742 -0.0212,-1.0808 -0.22424,-0.41339 -0.89611,-0.61782 l -1.3126,-0.39938 z" />
    <path
       inkscape:connector-curvature="0"
       id="path54"
       d="m -251.54,32.043 0.76917,0.39588 q 1.2034,0.61936 2.1976,0.26281 0.99842,-0.35443 1.6582,-1.6364 0.6598,-1.2819 0.36789,-2.29 -0.29191,-1.0081 -1.4994,-1.6296 l -0.76916,-0.39588 z m -1.8508,-0.39812 0.22561,-0.43834 0.7857,0.4044 2.7244,-5.2932 -0.78571,-0.4044 0.22774,-0.44248 2.4564,1.2643 q 1.5962,0.82156 2.066,2.0938 0.47392,1.2744 -0.27314,2.7259 -0.7492,1.4556 -2.0638,1.8147 -1.3146,0.35905 -2.9067,-0.46038 z" />
    <path
       inkscape:connector-curvature="0"
       id="path56"
       d="m -245.58,35.953 0.27671,-0.40801 0.7352,0.49859 1.4018,-2.067 0.16508,-4.0634 -0.53889,-0.36546 0.27932,-0.41186 2.1363,1.4488 -0.27932,0.41186 -0.66976,-0.45422 -0.14095,3.2986 3.0124,-1.3512 -0.64666,-0.43855 0.27931,-0.41186 1.6706,1.1329 -0.27931,0.41186 -0.54274,-0.36807 -3.6182,1.6147 -1.4514,2.1402 0.7352,0.49859 -0.27671,0.40802 z" />
    <path
       inkscape:connector-curvature="0"
       id="path58"
       d="m -239.74,39.621 1.0526,0.9087 q 0.6337,0.54704 1.163,0.52469 0.52926,-0.02236 1.0459,-0.62085 0.51361,-0.59498 0.45542,-1.1183 -0.0516,-0.52381 -0.68886,-1.0739 l -1.0526,-0.9087 z m 2.2976,-2.6615 0.89423,0.77194 q 0.57737,0.49842 1.0329,0.50456 0.45902,0.0092 0.87235,-0.46962 0.41636,-0.48232 0.33722,-0.93157 -0.0726,-0.44973 -0.64995,-0.94815 l -0.89422,-0.77194 z m -4.0033,1.8404 0.32215,-0.37318 0.66891,0.57743 3.8901,-4.5063 -0.66891,-0.57743 0.32519,-0.3767 2.5947,2.2398 q 0.79564,0.68684 0.91435,1.3607 0.12527,0.67339 -0.43393,1.3212 -0.40421,0.46824 -0.92594,0.50323 -0.51822,0.03803 -1.1116,-0.36358 0.59597,0.66193 0.64315,1.3048 0.0537,0.64237 -0.44468,1.2197 -0.67468,0.78156 -1.4867,0.72575 -0.81199,-0.05582 -1.8576,-0.95844 z" />
    <path
       inkscape:connector-curvature="0"
       id="path60"
       d="m -233.51,45.812 q 0.75983,0.84914 1.7298,0.76134 0.9734,-0.0909 2.1171,-1.1144 1.1472,-1.0266 1.3418,-1.9808 0.19805,-0.95736 -0.56178,-1.8065 -0.76294,-0.8526 -1.7363,-0.7617 -0.96994,0.0878 -2.1171,1.1144 -1.1437,1.0235 -1.3418,1.9808 -0.19459,0.95426 0.56835,1.8069 z m -0.37085,0.33185 q -0.47141,-0.52681 -0.69509,-1.1255 -0.22058,-0.59523 -0.18523,-1.2323 0.0408,-0.73553 0.3624,-1.3665 0.32468,-0.62755 0.952,-1.1889 0.62732,-0.56135 1.287,-0.81459 0.66619,-0.25287 1.4017,-0.21205 0.64359,0.03572 1.2042,0.32045 0.56406,0.28163 1.0417,0.81537 1.008,1.1264 0.89,2.4802 -0.11796,1.3538 -1.3275,2.4361 -0.62039,0.55514 -1.29,0.81112 -0.66619,0.25287 -1.3983,0.20895 -0.64358,-0.03572 -1.2076,-0.31735 -0.5606,-0.28473 -1.0351,-0.81501 z" />
    <path
       inkscape:connector-curvature="0"
       id="path62"
       d="m -227.13,55.008 -0.4177,-0.6382 3.8532,-4.4229 -5.5953,1.7611 -0.4177,-0.6382 4.3977,-5.0517 -0.37696,-0.57594 0.41639,-0.27253 1.3881,2.1209 -0.41639,0.27252 -0.47373,-0.72382 -3.5002,4.0196 5.5747,-1.7587 0.41261,0.63042 -3.878,4.4614 5.1401,-1.6244 -0.43808,-0.66933 0.41639,-0.27253 1.0952,1.6733 -0.41639,0.27252 -0.3744,-0.57205 z" />
    <path
       inkscape:connector-curvature="0"
       id="path64"
       d="m -225.16,57.844 1.4306,-0.67369 0.22366,0.48586 q -0.7054,0.35788 -0.86615,0.91168 -0.15457,0.55602 0.22388,1.3597 0.3527,0.74897 0.83151,1.0016 0.485,0.25484 1.053,-0.01266 0.45443,-0.214 0.58553,-0.56876 0.13309,-0.35055 0.004,-1.2253 l -0.14209,-0.94582 q -0.15053,-1.0292 0.0832,-1.5917 0.23575,-0.55827 0.94685,-0.89313 0.79946,-0.37647 1.5088,-0.01649 0.7093,0.35998 1.1928,1.3867 0.20607,0.4376 0.35499,1.0049 0.15313,0.56534 0.2496,1.2396 l -1.338,0.6301 -0.22391,-0.47547 q 0.63113,-0.3846 0.74932,-0.89778 0.12438,-0.51096 -0.23426,-1.2725 -0.31307,-0.66481 -0.75103,-0.88526 -0.43177,-0.21822 -0.94931,0.0255 -0.45022,0.21201 -0.58404,0.59376 -0.13382,0.38175 0.012,1.3464 l 0.13514,0.8874 q 0.14557,0.97503 -0.0838,1.5251 -0.22314,0.55232 -0.89216,0.86737 -0.91306,0.42997 -1.6513,0.06306 -0.73826,-0.36691 -1.2832,-1.524 -0.24372,-0.51754 -0.39215,-1.1057 -0.14645,-0.58391 -0.19341,-1.2404 z" />
    <path
       inkscape:connector-curvature="0"
       id="path66"
       d="m -222.88,63.594 0.4675,-0.15647 0.28046,0.83798 5.6453,-1.8895 -0.28047,-0.83798 0.47191,-0.15795 0.86059,2.5713 -0.47191,0.15795 -0.28047,-0.83798 -2.4919,0.83402 3.441,2.0019 -0.23914,-0.71449 0.47192,-0.15795 0.73216,2.1876 -0.47191,0.15795 -0.24799,-0.74095 -3.4293,-1.996 -2.1039,4.2207 0.25095,0.74977 -0.46751,0.15647 -0.51222,-1.5304 2.0819,-4.1692 -2.6595,0.89011 0.28047,0.83798 -0.46751,0.15647 z" />
    <path
       inkscape:connector-curvature="0"
       id="path68"
       d="m -219.84,72.058 0.20078,0.86055 -0.4801,0.11202 -0.61609,-2.6405 0.48009,-0.11202 0.20079,0.86055 5.7974,-1.3527 -0.20078,-0.86055 0.48462,-0.11308 0.6161,2.6405 -0.48462,0.11308 -0.20079,-0.86055 z" />
    <path
       inkscape:connector-curvature="0"
       id="path70"
       d="m -219.86,74.048 0.4884,-0.06712 0.1203,0.87544 5.8977,-0.81045 -0.12031,-0.87544 0.49302,-0.06775 0.76105,5.5383 -1.5297,0.21021 -0.0779,-0.56673 0.96298,-0.13233 -0.43434,-3.1608 -2.3038,0.31658 0.30961,2.2531 0.86162,-0.1184 0.0779,0.56673 -2.2854,0.31405 -0.0779,-0.56673 0.86162,-0.1184 -0.30962,-2.2531 -2.8797,0.39572 0.44448,3.2345 0.96299,-0.13233 0.0779,0.56673 -1.5297,0.21021 z" />
    <path
       inkscape:connector-curvature="0"
       id="path72"
       d="m -214.03,86.475 q 0.86796,-0.17191 1.2764,-0.69248 0.41313,-0.52062 0.40345,-1.4414 -0.0126,-1.1999 -0.79082,-1.7824 -0.77821,-0.58252 -2.3408,-0.56609 -1.53,0.01608 -2.3096,0.63357 -0.77956,0.61749 -0.76714,1.7987 0.006,0.52552 0.14077,1.0032 0.13525,0.47765 0.40023,0.90742 l 1.7905,-0.01882 -0.0137,-1.3068 0.49762,-0.0052 0.0237,2.2509 -2.5904,0.02722 q -0.3646,-0.61477 -0.5535,-1.3291 -0.18421,-0.70969 -0.19276,-1.5235 -0.0165,-1.5719 0.95479,-2.5309 0.97601,-0.95444 2.6084,-0.97159 1.6463,-0.0173 2.6329,0.92116 0.99126,0.93842 1.0081,2.5429 0.006,0.59528 -0.12662,1.2292 -0.12817,0.63855 -0.39968,1.3577 l -1.6463,0.0173 z" />
    <path
       inkscape:connector-curvature="0"
       id="path74"
       d="m -218.99,91.97 q -0.13875,1.131 0.566,1.8032 0.70936,0.67274 2.2327,0.85963 1.528,0.18745 2.3743,-0.29444 0.85094,-0.48133 0.98968,-1.6123 0.13932,-1.1356 -0.57004,-1.8083 -0.70475,-0.67218 -2.2327,-0.85962 -1.5234,-0.18688 -2.3743,0.29444 -0.84633,0.48189 -0.98564,1.6175 z m -0.49394,-0.0606 q 0.0861,-0.70167 0.38938,-1.2642 0.30274,-0.55795 0.80545,-0.9508 0.58045,-0.4536 1.2671,-0.62707 0.68609,-0.16886 1.5216,-0.06636 0.83555,0.1025 1.4605,0.4322 0.62898,0.33488 1.0826,0.91533 0.3969,0.50789 0.55174,1.1173 0.15946,0.60997 0.0722,1.3209 -0.18405,1.5003 -1.2806,2.3029 -1.09655,0.8026 -2.7076,0.60498 -0.82632,-0.10137 -1.4599,-0.43682 -0.62898,-0.33488 -1.078,-0.91476 -0.3969,-0.50789 -0.55635,-1.1179 -0.15485,-0.6094 -0.0682,-1.3157 z" />
    <path
       inkscape:connector-curvature="0"
       id="path76"
       d="m -219,106.57 -0.65599,-0.2085 q -0.24917,-0.56722 -0.30853,-1.0253 -0.0594,-0.45808 0.0717,-0.87029 0.13525,-0.42551 0.67292,-1.1038 l 0.0318,-0.0387 q 0.0332,-0.0431 0.10412,-0.12796 0.45974,-0.57125 0.59357,-0.99233 0.12962,-0.40777 0.0882,-0.84552 -0.0384,-0.4319 -0.25431,-0.93486 l 0.67372,0.21414 q 0.24473,0.56581 0.29664,1.0166 0.0549,0.45667 -0.0775,0.87332 -0.13525,0.4255 -0.67292,1.1038 l -0.0318,0.0387 q -0.0332,0.0431 -0.0969,0.1205 -0.46135,0.56098 -0.59801,0.99092 -0.12961,0.40778 -0.0896,0.84996 0.04,0.44217 0.25291,0.93929 z" />
    <path
       inkscape:connector-curvature="0"
       id="path78"
       d="m -224.37,109.64 0.43652,0.22911 -0.41067,0.78245 5.2712,2.7666 0.41067,-0.78244 0.44064,0.23127 -1.2601,2.4009 -0.44064,-0.23128 0.41068,-0.78244 -5.2012,-2.7299 -1.4741,2.8086 1.0295,0.54036 -0.26586,0.50653 -1.5361,-0.80622 z" />
    <path
       inkscape:connector-curvature="0"
       id="path80"
       d="m -227.35,115.23 0.40736,0.27767 -0.49771,0.73017 4.919,3.353 0.49771,-0.73017 0.4112,0.28029 -3.1487,4.6193 -1.2759,-0.86969 0.3222,-0.47269 0.80319,0.54748 1.797,-2.6363 -1.9215,-1.3098 -1.281,1.8792 0.71864,0.48986 -0.32221,0.47269 -1.9061,-1.2993 0.32221,-0.47269 0.71864,0.48986 1.281,-1.8792 -2.4019,-1.6372 -1.8389,2.6978 0.80319,0.54748 -0.32221,0.47269 -1.2759,-0.86969 z" />
    <path
       inkscape:connector-curvature="0"
       id="path82"
       d="m -231.35,128.36 q 0.75941,0.45409 1.4115,0.34147 0.65553,-0.10953 1.2655,-0.79945 0.79476,-0.89899 0.60755,-1.8529 -0.1872,-0.95388 -1.358,-1.9889 -1.1464,-1.0135 -2.1388,-1.0776 -0.99241,-0.0641 -1.7748,0.82092 -0.34809,0.39375 -0.56781,0.8389 -0.21972,0.44515 -0.31108,0.94171 l 1.3415,1.186 0.86561,-0.97913 0.37284,0.3296 -1.4909,1.6865 -1.9408,-1.7158 q 0.1414,-0.70063 0.4799,-1.3574 0.3389,-0.65018 0.87798,-1.26 1.0412,-1.1777 2.4048,-1.2386 1.364,-0.0543 2.5871,1.027 1.2335,1.0905 1.3368,2.4482 0.10681,1.3608 -0.95595,2.563 -0.3943,0.44601 -0.91777,0.82748 -0.52308,0.38804 -1.2065,0.73982 l -1.2335,-1.0905 z" />
    <path
       inkscape:connector-curvature="0"
       id="path84"
       d="m -236.35,126.59 0.32139,0.37383 -0.70888,0.60942 3.8809,4.5143 0.70888,-0.60942 0.32441,0.37736 -1.3508,1.1612 -6.7281,-1.4409 3.2472,3.7772 0.70535,-0.60639 0.32442,0.37737 -1.848,1.5887 -0.32441,-0.37736 0.70887,-0.60942 -4.2902,-4.9904 0.42674,-0.36686 7.1858,1.5381 -3.4049,-3.9606 -0.70888,0.60942 -0.32139,-0.37384 z" />
    <path
       inkscape:connector-curvature="0"
       id="path86"
       d="m -244.04,133.38 -0.72594,0.50385 -0.2811,-0.405 2.2275,-1.546 0.2811,0.405 -0.72594,0.50385 3.3944,4.8906 0.72594,-0.50386 0.28375,0.40882 -2.2275,1.546 -0.28375,-0.40883 0.72594,-0.50385 z" />
    <path
       inkscape:connector-curvature="0"
       id="path88"
       d="m -250.39,138.74 q -0.20899,-0.99769 0.17713,-1.7912 0.38435,-0.78714 1.3491,-1.3298 0.59183,-0.33289 1.2125,-0.41521 0.62071,-0.0823 1.2351,0.0897 0.70937,0.19865 1.2561,0.64886 0.54494,0.45655 0.95535,1.1862 0.79346,1.4107 0.46432,2.7324 -0.32685,1.3258 -1.6605,2.0759 -0.49455,0.27817 -1.1269,0.46309 -0.63237,0.18493 -1.4251,0.28397 l -0.78433,-1.3944 0.45806,-0.25765 q 0.57863,0.67773 1.2356,0.78314 0.65288,0.10769 1.4677,-0.3506 0.96882,-0.54493 1.0798,-1.5145 0.11327,-0.96551 -0.63686,-2.2992 -0.74786,-1.3296 -1.6341,-1.7383 -0.88393,-0.40462 -1.8528,0.14031 -0.67696,0.38076 -0.93463,0.94725 -0.25539,0.57053 -0.0897,1.3204 z" />
    <path
       inkscape:connector-curvature="0"
       id="path90"
       d="m -252.61,140.47 -2.3563,0.97148 2.4368,2.5671 z m 0.85542,-3.0743 0.18792,0.45578 -0.56327,0.23223 0.17139,6.9069 -0.72236,0.29782 -4.7506,-5.0189 -0.63206,0.2606 -0.18792,-0.45578 2.3348,-0.96262 0.18792,0.45577 -0.71376,0.29429 1.1189,1.1887 2.7002,-1.1133 -0.044,-1.6319 -0.70516,0.29074 -0.18791,-0.45578 z" />
  </g>
  <g
     style="fill:none;stroke:#c0c0c0"
     id="g100"
     transform="translate(-18.354,-316.89)">
    <path
       style="stroke-width:0.49283999"
       inkscape:connector-curvature="0"
       id="path94"
       d="M 76.012,459.35 A 69.242,69.242 0 0 1 27.05,374.546 69.242,69.242 0 0 1 111.854,325.584 69.242,69.242 0 0 1 160.816,410.388 69.242,69.242 0 0 1 76.012,459.35 Z" />
    <path
       style="stroke-width:1.11800003"
       inkscape:connector-curvature="0"
       id="path96"
       d="m 75.323,461.92 a 71.902,71.902 0 0 1 -50.842,-88.061 71.902,71.902 0 0 1 88.061,-50.842 71.902,71.902 0 0 1 50.842,88.061 71.902,71.902 0 0 1 -88.061,50.842 z" />
    <path
       style="stroke-width:0.34597999"
       inkscape:connector-curvature="0"
       id="path98"
       d="m 79.553,446.13 a 55.557,55.557 0 0 1 -39.285,-68.044 55.557,55.557 0 0 1 68.044,-39.285 55.557,55.557 0 0 1 39.285,68.044 55.557,55.557 0 0 1 -68.044,39.285 z" />
  </g>
  <path
     sodipodi:nodetypes="cccsccccccccsccccccccccccscccccccccsccccscccccccscccccccccccccscsscsccsccccccccccsccccccscccccccscccscscccccsccsccsccccccccscccccccccscsccsccccccccccccsccsccccccccscccsccccccccccscccccccccscscscccccccccsccsccccccccccsccccccccccccscccccccccccccccccccccccsccccccssccccscccccscccccccccccccccccccccccccscscccscscsccccccccscccccccccccssccccsscccccccscccccccccccccsssscccccccccccccccccccccccccscccccccccssccccccccccccccscccccscccccccscccszccccccccccccccccccccc"
     style="fill:#c0c0c0"
     inkscape:connector-curvature="0"
     id="path102"
     d="m 76.117,36.23 c -2.5974,-0.0254 -5.147,0.33065 -7.1448,1.094 -4.7685,1.822 -8.2107,4.7729 -10.433,8.9447 -2.6474,4.9686 -3.5781,8.7754 -3.5781,14.637 0,3.8784 0.0237,4.0007 0.7307,3.8158 0.69781,-0.18251 0.71924,-0.34573 0.48524,-3.6463 -0.21928,-3.0928 -0.16697,-3.6158 0.49919,-4.9919 0.57373,-1.1852 1.1696,-1.7587 2.6014,-2.5042 1.6733,-0.87138 1.2622,-1.1749 -0.55912,-0.41291 -0.59105,0.24728 -0.61029,0.19352 -0.20931,-0.57206 2.2016,-4.2034 3.1254,-4.917 4.763,-3.6783 0.37663,0.28485 0.92284,0.52525 1.2139,0.53382 0.82759,0.0244 3.528,2.7188 3.528,3.5202 0,0.92239 0.26289,0.90921 1.0418,-0.0527 l 0.62526,-0.77256 0.45271,0.84543 c 0.24897,0.46521 0.441,1.329 0.42632,1.9193 l -0.0269,1.0733 0.65474,-0.80047 c 0.63074,-0.77147 0.6626,-0.77554 0.87331,-0.11162 0.1945,0.61274 0.53959,0.68595 3.113,0.66352 2.5123,-0.0219 3.1033,0.097 4.4814,0.90125 0.87312,0.50951 1.4398,0.92834 1.2593,0.93067 -0.18048,0.002 0.15269,0.44053 0.74001,0.97412 1.6087,1.4614 2.4229,2.8626 1.943,3.3424 -0.49856,0.49853 -2.1787,-0.18565 -2.1787,-0.88728 0,-0.25892 -0.46564,-0.91739 -1.0351,-1.463 -0.80585,-0.77205 -1.2394,-0.94078 -1.9549,-0.7612 -1.1306,0.28376 -0.94239,0.6391 0.77981,1.4738 0.9866,0.47826 1.165,0.67852 0.694,0.77774 -0.34888,0.0735 -0.86448,-0.0577 -1.1462,-0.29147 -0.73027,-0.60605 -0.70093,0.58121 0.0326,1.3147 0.71077,0.71075 0.51141,1.2351 -0.6935,1.8221 l -0.97875,0.47646 1.1012,0.66972 c 0.60574,0.36838 1.345,0.66974 1.6428,0.66974 0.29782,0 0.43937,0.16592 0.31419,0.36846 -0.12517,0.20253 -0.0373,0.59772 0.19534,0.87796 0.82373,0.99251 -0.53594,0.92726 -2.5053,-0.11988 -2.4952,-1.3268 -6.0352,-3.7048 -6.6895,-4.4938 -0.2839,-0.34237 -0.51623,-1.1933 -0.51623,-1.8908 0,-1.1202 -0.11253,-1.2809 -0.96687,-1.3792 -1.2478,-0.14364 -1.5245,0.49342 -2.1766,5.0209 -0.40495,2.8115 -0.41908,3.7469 -0.0723,4.7625 0.46067,1.3494 0.48837,1.3577 2.2546,0.67024 0.84714,-0.32972 1.3176,-0.34761 1.7637,-0.0661 1.0523,0.66378 0.71721,1.3564 -0.71419,1.4748 -1.4874,0.12311 -1.6505,0.39825 -0.61751,1.0434 0.38804,0.24233 0.70538,0.66479 0.70538,0.93845 0,1.1715 1.2825,2.6913 2.7445,3.253 1.48,0.56864 1.5267,0.56423 2.3875,-0.24442 l 0.87797,-0.82476 1.0692,1.2139 c 1.0997,1.2485 2.4244,3.6869 2.4381,4.4881 0.0186,1.0868 -1.0787,0.70929 -2.7931,-0.96065 -1.6136,-1.5717 -2.008,-1.784 -3.3078,-1.7792 -2.1437,0.008 -2.5832,0.38137 -1.82,1.5462 0.33676,0.51398 0.85455,1.0696 1.1503,1.2351 0.79795,0.44654 0.27466,1.3472 -0.9374,1.6134 -1.1,0.24157 -1.4114,0.84175 -1.1601,2.235 0.0917,0.5085 0.32628,0.7457 0.62529,0.63098 0.26331,-0.10105 0.64574,0.12769 0.84955,0.5085 0.20383,0.38084 0.54057,0.69244 0.74829,0.69244 0.2076,0 0.84926,0.39653 1.4257,0.88162 0.57647,0.48506 1.2741,0.88212 1.5503,0.88212 0.27614,0 0.50178,0.24733 0.50178,0.54983 0,0.3025 -0.16542,0.44762 -0.36793,0.32245 -0.47167,-0.29149 -1.3958,0.46678 -1.3958,1.1452 0,0.28585 0.338,0.99372 0.75086,1.5735 0.63203,0.88762 0.71514,1.3564 0.52604,2.9652 -0.12851,1.0936 -0.0854,1.9105 0.10078,1.9105 0.4943,0 -0.10242,1.8377 -0.72398,2.2298 -0.70649,0.44561 -2.2286,0.0551 -3.0251,-0.77619 -0.34493,-0.35996 -1.2202,-0.84558 -1.9451,-1.0795 -0.7249,-0.23395 -1.3988,-0.55645 -1.4976,-0.71623 -0.0987,-0.15978 -0.83634,-0.63264 -1.6392,-1.0511 -0.80282,-0.41846 -1.7475,-1.1096 -2.0991,-1.5358 -0.63103,-0.7647 -0.6337,-0.75805 -0.20672,0.50697 0.23797,0.70509 0.66591,1.5684 0.95084,1.9182 0.46582,0.57192 0.45574,0.61262 -0.0992,0.40463 -0.43945,-0.16473 -0.61492,-0.0564 -0.60873,0.37515 0.009,0.60153 2.023,1.8407 2.9921,1.8407 0.27625,0 0.66704,0.30845 0.86868,0.68522 0.21923,0.40966 0.63844,0.63236 1.0428,0.55449 0.63698,-0.12266 1.2864,0.65931 1.1276,1.3576 -0.0381,0.16732 0.21439,0.5193 0.56121,0.78237 0.34681,0.26308 0.47204,0.49951 0.27802,0.52504 -0.19404,0.0255 0.0441,0.18087 0.52917,0.3452 0.72885,0.24697 0.63698,0.28295 -0.52917,0.20876 -1.2512,-0.0796 -1.3976,-0.1818 -1.294,-0.90175 0.075,-0.52062 -0.0225,-0.72602 -0.27078,-0.57256 -0.21296,0.13163 -0.27876,0.41426 -0.14676,0.62785 0.15822,0.25599 0.0225,0.30533 -0.39738,0.14418 -0.47329,-0.18161 -0.55459,-0.12899 -0.31679,0.20465 0.47948,0.67276 0.37066,1.6704 -0.22325,2.0459 -0.38325,0.2423 -0.40045,0.33401 -0.0641,0.33795 0.25398,0.003 0.35682,0.17444 0.22892,0.38137 -0.1279,0.20693 -0.3212,0.28808 -0.42945,0.17984 -0.10821,-0.10825 -0.42193,-0.0103 -0.69709,0.21806 -0.38704,0.32124 -0.56494,0.31092 -0.78653,-0.0475 -0.34801,-0.56304 -1.0707,-0.18558 -1.0707,0.55911 0,0.81159 -0.8654,0.36021 -0.99476,-0.51882 -0.071,-0.48278 -0.36459,-0.76636 -0.79375,-0.76636 -0.69741,0 -0.998,-1.2371 -0.35708,-1.4697 0.17823,-0.0647 -0.0665,-0.59406 -0.54364,-1.1762 l -0.86765,-1.0583 -0.87489,1.0583 c -0.4812,0.58209 -0.96819,1.4156 -1.0821,1.8521 -0.20859,0.79949 -0.83613,1.1148 -0.83613,0.42013 0,-0.20548 -0.19077,-0.25564 -0.42373,-0.11163 -0.32962,0.2037 -0.32962,0.29321 0,0.40309 0.23296,0.0777 0.42373,0.53809 0.42373,1.0232 0,0.99743 -0.62646,0.96618 -1.2097,-0.0605 -0.20788,-0.36592 -0.65574,-0.98216 -0.99528,-1.3689 -0.33957,-0.38671 -0.61754,-1.0131 -0.61754,-1.3916 0,-0.8378 -1.0858,-1.7116 -1.5984,-1.2862 -0.58751,0.4876 -1.2155,-0.13933 -0.99272,-0.99116 0.23855,-0.91217 0.75769,-1.021 1.064,-0.22272 0.17264,0.44987 0.27246,0.46678 0.51263,0.0879 0.16406,-0.25879 0.30088,-0.57285 0.30384,-0.69766 0.0113,-0.47609 -1.0971,-0.61978 -1.913,-0.24804 -1.4269,0.65018 -2.4825,0.16004 -2.5502,-1.1849 -0.0322,-0.63907 -0.16901,-1.6783 -0.30438,-2.3089 -0.19777,-0.92149 -0.13451,-1.1462 0.32298,-1.1462 0.31306,0 0.56949,-0.13957 0.56946,-0.31004 0,-0.17049 0.48139,-0.50921 1.0697,-0.75292 1.6624,-0.68861 1.0043,-0.77608 -0.92654,-0.12301 -2.5928,0.87691 -2.7598,0.93208 -3.1419,1.0315 -0.19404,0.0505 -1.3847,0.49474 -2.6458,0.98755 l -2.2929,0.89607 2.7451,0.0176 c 2.2924,0.0144 2.7786,0.119 2.9481,0.63457 0.11171,0.33957 0.42426,1.1177 0.69453,1.7291 0.27028,0.6114 0.49144,1.2372 0.49144,1.3911 0,0.15391 0.73792,2.168 1.6402,4.4752 1.4719,3.7638 1.8625,4.4185 3.7982,6.3696 1.5335,1.5457 3.0233,2.601 5.1506,3.6499 1.6461,0.81164 3.3105,1.5476 3.6985,1.635 0.38807,0.0875 6.421674,1.32096 8.718723,1.33222 11.591067,0.0568 19.074677,-6.68827 25.996977,-14.98775 2.1832,-2.6739 3.418,-4.8114 4.0974,-7.0941 0.40412,-1.3578 0.48161,-1.4153 2.0583,-1.5188 1.9737,-0.12951 2.1418,-0.65159 0.31575,-0.98134 -1.6075,-0.2903 -6.1545,-1.4224 -7.8491,-1.9544 -1.6904,-0.53063 -5.6242,-4.5905 -6.8239,-7.0425 -0.88381,-1.8065 -0.95565,-2.2625 -0.86246,-5.4674 l 0.10128,-3.497 1.1684,0.11369 c 1.3744,0.13372 2.0478,-0.34141 2.7016,-1.9064 0.26283,-0.62904 0.76999,-1.438 1.1266,-1.7978 2.5245,-2.5472 3.118,-6.5854 1.4557,-9.9033 -0.2362,-0.47146 -0.72102,-0.79375 -1.1942,-0.79375 -0.43819,0 -1.1093,-0.3965 -1.4908,-0.88162 -0.66725,-0.84822 -1.3932,-1.255 -0.94467,-0.52916 0.11994,0.19404 0.0499,0.35245 -0.15552,0.35245 -0.43254,0 -0.45035,-0.0951 -0.16021,-0.85111 0.11735,-0.30581 0.33528,-0.47996 0.48472,-0.38759 0.43016,0.26585 0.32605,-1.7045 -0.11988,-2.2686 -0.31113,-0.39357 -0.30025,-0.44738 0.0486,-0.2377 0.34698,0.20857 0.43622,-0.17928 0.38706,-1.6836 -0.0351,-1.075 -0.15859,-1.8973 -0.2744,-1.8273 -0.1158,0.0699 -0.22971,-0.56153 -0.25323,-1.4035 -0.0528,-1.8889 -0.41243,-2.967 -0.78753,-2.3601 -0.14788,0.23929 -0.26355,-0.0967 -0.26355,-0.76687 0,-1.1884 -1.4659,-3.8304 -1.957,-3.5269 -0.13841,0.0855 -0.36656,-0.0301 -0.50694,-0.25733 -0.15944,-0.25795 -0.10245,-0.31846 0.15192,-0.16124 0.224,0.13843 0.40722,0.10268 0.40722,-0.0791 0,-0.4473 -0.88948,-1.1586 -1.1788,-0.94258 -0.12766,0.0953 -0.15269,0.0667 -0.0553,-0.063 0.25302,-0.337 -0.91628,-1.5483 -1.2785,-1.3245 -0.16589,0.10252 -0.21693,-0.035 -0.11319,-0.30541 0.22574,-0.58828 -2.1535,-2.6199 -4.4297,-3.7822 -2.425,-1.2383 -5.8434,-1.9011 -9.1829,-1.9337 z m 13.195,7.3732 c 0.35499,-0.0174 1.3169,0.33676 1.4821,0.60409 0.22437,0.36304 0.21482,0.36222 -0.8201,-0.0537 -0.43659,-0.1755 -0.79375,-0.38828 -0.79375,-0.47337 0,-0.0492 0.0498,-0.073 0.13176,-0.077 z m 0.92604,1.974 c 0.0108,-0.025 0.13756,0.0667 0.38603,0.26045 0.3089,0.24085 0.66609,0.33338 0.79375,0.20569 0.12766,-0.12766 0.23204,-0.047 0.23201,0.17931 0,0.60396 -0.54845,0.50178 -1.1033,-0.20569 -0.21418,-0.27307 -0.3193,-0.41473 -0.30851,-0.43976 z m 1.2351,1.5276 c 0.27397,0 0.41669,0.13232 0.31676,0.29403 -0.0999,0.16169 -0.24265,0.29353 -0.31676,0.29353 -0.0741,0 -0.21632,-0.13184 -0.31626,-0.29353 -0.0999,-0.16171 0.0423,-0.29403 0.31626,-0.29403 z m 1.7611,1.7606 c 0.093,0.0176 0.21331,0.17018 0.30128,0.39944 0.23855,0.62164 0.0352,0.7308 -0.31263,0.16796 -0.1279,-0.20694 -0.15709,-0.45167 -0.0646,-0.54415 0.0116,-0.0116 0.0246,-0.0192 0.0383,-0.0228 0.012,-0.003 0.0244,-0.003 0.0377,-5e-4 z m 0.2899,1.5529 c 0.23482,-0.005 0.47578,0.15608 0.50075,0.48784 0.0276,0.36674 -0.0189,0.66712 -0.10387,0.66712 -0.0849,0 -0.15449,-0.16811 -0.15452,-0.37362 0,-0.20545 -0.15891,-0.27545 -0.35293,-0.15555 -0.19404,0.11994 -0.35295,0.0669 -0.35295,-0.11781 0,-0.33227 0.2287,-0.50316 0.46352,-0.50798 z m -1.3327,0.23667 c 0.0358,-0.009 0.0685,-2.6e-4 0.0956,0.0269 0.10861,0.10862 2.6e-4,0.39323 -0.24082,0.63252 -0.34841,0.34581 -0.38886,0.30538 -0.19741,-0.19741 0.0994,-0.26093 0.23511,-0.43643 0.34261,-0.46199 z m 1.3105,1.3193 c 0.0561,0.0107 0.14327,0.11173 0.26977,0.30438 0.30877,0.47037 0.38626,0.47037 0.69503,0 0.19108,-0.29104 0.34727,-0.37026 0.34727,-0.17624 0,0.69045 -0.59286,1.332 -0.84852,0.91829 -0.16711,-0.2703 -0.4462,-0.28152 -0.90279,-0.0372 -0.82245,0.44016 -0.96472,0.44055 -1.234,0.005 -0.12359,-0.19997 0.0178,-0.25897 0.33176,-0.13851 0.30192,0.11586 0.54779,0.0253 0.54777,-0.20153 0,-0.22624 0.15843,-0.31321 0.35245,-0.19328 0.19402,0.11991 0.35565,0.0105 0.35864,-0.24339 0.002,-0.16811 0.0266,-0.24791 0.0827,-0.2372 z m -30.541,0.30438 c -0.68138,0 -0.67514,0.0424 0.14057,0.92035 0.77272,0.83169 1.8261,1.4669 2.5311,1.5265 0.14552,0.0123 0.26459,-0.35867 0.26459,-0.82476 0,-0.63335 -0.28075,-0.94511 -1.1111,-1.2345 -0.61103,-0.21302 -1.4323,-0.38756 -1.8252,-0.38756 z m 30.722,1.1348 c 0.10745,0.0201 0.0178,0.4913 -0.26871,1.1581 -0.19992,0.46521 -0.30967,0.52564 -0.32247,0.17671 -0.0106,-0.29101 0.13438,-0.76729 0.32247,-1.0583 0.13023,-0.20151 0.21987,-0.28557 0.26871,-0.27646 z m 0.60616,0.76274 c 0.0884,0.0156 0.11565,0.18505 0.0904,0.51935 -0.065,0.86309 -0.12364,0.91127 -0.45527,0.37465 -0.13036,-0.2109 -0.068,-0.55203 0.13798,-0.75809 0.0991,-0.0991 0.17383,-0.14525 0.22685,-0.13591 z m -1.8635,0.22635 c 0.0374,0.005 0.0697,0.0193 0.0946,0.0455 0.0645,0.0679 -0.10475,0.32858 -0.37621,0.57877 -0.27149,0.25019 -0.4935,0.29925 -0.49353,0.10904 0,-0.32054 0.51356,-0.76695 0.77515,-0.73329 z m 2.8717,0.12713 c 0.0953,0.002 0.10583,0.14123 0.0155,0.37671 -0.23452,0.61114 -0.48731,0.72292 -0.48731,0.21551 0,-0.18257 0.15703,-0.42924 0.34883,-0.5478 0.05,-0.0309 0.0912,-0.0452 0.12301,-0.0444 z m -2.7099,0.73379 c 0.0851,-0.002 0.2277,0.0235 0.43045,0.0765 0.60248,0.15753 0.67889,0.30231 0.36071,0.68574 -0.27027,0.32565 -0.27975,0.48628 -0.0284,0.48628 0.20632,0 0.47334,-0.15893 0.59325,-0.35295 0.11991,-0.19402 0.40711,-0.35026 0.6382,-0.34727 0.2948,0.004 0.30488,0.0827 0.0336,0.26458 -0.59778,0.40069 -0.91319,2.1176 -0.44233,2.4086 0.2536,0.15671 0.31334,0.0982 0.15708,-0.15452 -0.13843,-0.22402 -0.0703,-0.40722 0.15142,-0.40722 0.50678,0 0.26842,0.78939 -0.29509,0.97721 -0.23029,0.0768 -0.51771,-0.11824 -0.6387,-0.43357 -0.12552,-0.32708 -0.52809,-0.52903 -0.93742,-0.47024 -0.39463,0.0567 -0.77624,-0.0689 -0.84802,-0.27853 -0.0818,-0.23892 0.26773,-0.3225 0.93689,-0.22429 0.69482,0.10197 1.0682,0.005 1.0682,-0.27749 0,-0.26022 -0.28252,-0.36018 -0.70538,-0.24961 -0.38785,0.10144 -0.80917,0.0161 -0.93636,-0.18965 -0.12774,-0.20667 -0.0656,-0.27162 0.13901,-0.14521 0.51168,0.31623 0.82926,-0.65227 0.36587,-1.1157 -0.16637,-0.16637 -0.18468,-0.24874 -0.0429,-0.25271 z m 1.9756,1.416 c 0.10933,-0.004 0.33589,0.22214 0.54311,0.55396 0.51218,0.8201 0.34153,0.91027 -0.28784,0.15192 -0.24543,-0.29572 -0.37806,-0.60587 -0.29456,-0.68934 0.0104,-0.0104 0.0237,-0.016 0.0393,-0.0165 z m -32.6,1.2314 c -0.0865,-0.003 -0.17237,-0.003 -0.25839,0.002 -0.88474,0.0418 -1.7408,0.45226 -2.4841,1.2191 l -1.171,1.2082 1.4609,-0.37105 c 1.332,-0.33811 1.4064,-0.41396 0.8377,-0.8604 C 60.005,58.83934 59.88276,58.6467 60.0768,58.6803 c 0.19402,0.0336 0.63339,-0.0616 0.97616,-0.21135 0.61288,-0.26786 1.5112,-0.1702 2.9042,0.31576 0.46577,0.16248 0.40601,0.0622 -0.17621,-0.29509 -0.59746,-0.3665 -1.2126,-0.55788 -1.818,-0.57825 z m 30.865,0.52917 c 0.14082,7.1e-4 0.23358,0.0572 0.23358,0.16174 0,0.16716 -0.23813,0.39579 -0.52917,0.50747 -0.29107,0.11168 -0.52916,0.0659 -0.52916,-0.10129 0,-0.16719 0.23809,-0.39523 0.52916,-0.50696 0.10914,-0.0419 0.21109,-0.0614 0.29559,-0.061 z m 0.41029,0.90484 c 0.19405,0 0.59055,0.15404 0.88162,0.34211 0.29104,0.18809 0.37076,0.34208 0.17672,0.34208 -0.19394,0 -0.59106,-0.15399 -0.8821,-0.34208 -0.29104,-0.18807 -0.37018,-0.34211 -0.17624,-0.34211 z m -0.76427,0.49869 c 0.10726,0.006 0.13359,0.0755 0.0563,0.2005 -0.2072,0.3352 -0.87953,0.49551 -0.87956,0.20979 0,-0.0763 0.24615,-0.23326 0.54727,-0.3488 0.11774,-0.0452 0.21159,-0.0648 0.27596,-0.0615 z m 1.8815,0.70538 c 0.0644,-0.003 0.15772,0.0168 0.27543,0.062 0.61116,0.23445 0.72295,0.48728 0.2155,0.48728 -0.18258,0 -0.42873,-0.157 -0.54726,-0.3488 -0.0772,-0.12499 -0.0509,-0.19502 0.0563,-0.2005 z m -32.244,10e-4 c -0.0485,0.004 -0.0962,0.0201 -0.14158,0.048 -0.2114,0.13065 -0.10977,0.48445 0.25527,0.88781 0.71387,0.7888 0.81092,0.81944 0.72141,0.22945 -0.10271,-0.6771 -0.49545,-1.1963 -0.8351,-1.1653 z m 29.965,0.17931 c 0.0608,-0.002 0.19566,0.0435 0.40826,0.12507 0.34906,0.13393 0.70122,0.24389 0.78237,0.24389 0.0811,0 0.14729,0.15841 0.14729,0.35245 0,0.51901 -0.45762,0.40685 -1.047,-0.25683 -0.28895,-0.32541 -0.39235,-0.4613 -0.29094,-0.46458 z m -32.56,0.986 c -0.15627,-0.0199 -0.17055,0.264 -0.17055,0.9839 0,0.67154 0.0207,1.2211 0.046,1.2211 0.0254,0 0.31035,-0.29146 0.63304,-0.64804 0.54798,-0.6055 0.54504,-0.6862 -0.046,-1.2211 -0.22386,-0.20259 -0.36875,-0.32395 -0.46249,-0.33588 z m 0.33226,0.62632 c 0.0358,-0.004 0.075,0.006 0.11629,0.031 0.16486,0.10186 0.20828,0.33305 0.0966,0.51366 -0.28527,0.46156 -0.39634,0.40984 -0.39634,-0.18502 0,-0.21186 0.076,-0.34783 0.18343,-0.35965 z m 37.924,0.52813 c 0.13472,0.0204 0.32819,0.22659 0.55345,0.64749 0.40244,0.75195 0.62201,3.1003 0.31833,3.4039 -0.11203,0.11206 -0.29177,-0.15991 -0.39946,-0.60462 -0.1077,-0.44471 -0.34931,-1.4041 -0.5364,-2.1316 -0.22283,-0.86659 -0.1605,-1.3491 0.0641,-1.3152 z m -42.152,3.005 c -0.0459,0.007 -0.0967,0.0218 -0.15298,0.0434 -0.43384,0.16651 -0.50088,0.51621 -0.31263,1.6304 0.13182,0.78015 0.28512,1.9115 0.34107,2.5135 0.23866,2.568 0.62559,4.4416 0.91673,4.4416 0.17201,0 0.31263,-1.2698 0.31263,-2.8221 0,-1.6463 -0.14716,-2.8225 -0.35292,-2.8225 -0.19405,0 -0.35296,-0.70911 -0.35296,-1.5762 0,-1.125 -0.0777,-1.4582 -0.39894,-1.4082 z m 2.2546,0.002 c -0.03,-0.003 -0.0575,-0.003 -0.0832,5.3e-4 -0.0294,0.004 -0.056,0.0134 -0.0786,0.0274 -0.18073,0.11171 -0.0593,0.50086 0.27028,0.86505 0.32961,0.36426 0.74789,0.57111 0.92863,0.45943 0.18071,-0.11171 0.0583,-0.50139 -0.2713,-0.86559 -0.25236,-0.27887 -0.55616,-0.46487 -0.76584,-0.4868 z m -0.0915,0.16073 c 0.0182,-0.0182 0.16105,0.0886 0.44082,0.30798 0.33954,0.26632 0.61754,0.54377 0.61751,0.61703 0,0.29035 -0.28998,0.10343 -0.75083,-0.48421 -0.21942,-0.27977 -0.32563,-0.42257 -0.3075,-0.4408 z m 4.2333,0.36327 c -0.007,-0.0305 -0.32343,0.25009 -0.97253,0.85474 -1.3487,1.2562 -1.4949,1.5537 -1.4749,2.9988 0.0205,1.4727 0.0543,1.5316 0.40981,0.72191 0.21301,-0.48508 0.40134,-1.308 0.41857,-1.8288 0.0173,-0.52197 0.50517,-1.472 1.0873,-2.1167 0.35615,-0.39447 0.53745,-0.60624 0.53173,-0.62995 z m 31.992,0.0765 c 0.33499,0.0207 0.7593,0.34984 1.233,0.98494 0.6228,0.83505 0.63103,0.98415 0.12091,2.205 -0.64974,1.555 -1.1436,1.6695 -1.4614,0.33901 -0.12747,-0.53356 -0.3548,-1.1289 -0.50488,-1.3229 -0.15007,-0.19402 -0.18745,-0.79689 -0.0832,-1.34 0.11494,-0.59875 0.36058,-0.88678 0.69557,-0.86609 z m -19.83,2.0262 c 0.53263,0.0275 1.3962,0.52559 2.2143,1.3725 0.72737,0.75295 1.6124,2.1963 1.9663,3.2076 0.74112,2.1177 0.6637,2.5372 -0.19275,1.0449 -0.3269,-0.56954 -0.81172,-1.0356 -1.0775,-1.0356 -0.57647,0 -3.4303,-3.4143 -3.4303,-4.1041 0,-0.34885 0.20029,-0.50175 0.51988,-0.48524 z m -14.455,4.6498 c -0.049,-0.009 -0.0841,0.2881 -0.0868,0.82166 -0.004,0.77613 0.0652,1.1352 0.15348,0.79788 0.0883,-0.33729 0.0919,-0.97245 0.007,-1.4113 -0.0264,-0.13713 -0.0516,-0.20418 -0.0739,-0.20825 z m 3.1094,5.9371 c -0.28964,0 -1.1618,2.1942 -0.98546,2.4794 0.34123,0.55216 0.52019,0.39344 0.27543,-0.24442 -0.15044,-0.39206 -0.0895,-0.50302 0.18343,-0.33435 0.27543,0.17021 0.33277,0.055 0.17624,-0.35293 -0.13364,-0.34824 -0.089,-0.51676 0.10488,-0.39687 0.18542,0.11461 0.33695,-0.0975 0.33695,-0.47131 0,-0.3738 -0.0411,-0.67955 -0.0915,-0.67955 z m 28.814,4.4096 0.74001,1.543 c 0.99047,2.0664 1.0842,6.1612 0.20513,8.9519 -0.35142,1.1156 -0.7973,2.0288 -0.99063,2.0288 -0.19333,0 -0.26831,-0.27794 -0.16692,-0.61751 0.62111,-2.0798 0.87233,-7.6982 0.46148,-10.319 z m -28.748,4.7119 1.2041,1.0692 c 0.66212,0.58801 1.3258,0.99335 1.4748,0.90122 0.14906,-0.0921 0.35118,-0.0379 0.44905,0.12042 0.0979,0.15838 0.57483,0.28834 1.0599,0.28834 0.48507,0 0.81235,-0.11322 0.7271,-0.25114 -0.0853,-0.1379 -0.43225,-0.20572 -0.77102,-0.1509 -0.33877,0.0548 -0.81426,-0.0583 -1.0568,-0.25114 -0.24244,-0.19288 -0.4413,-0.23267 -0.4413,-0.0889 0,0.1438 -0.59531,-0.16574 -1.3229,-0.68784 z m -6.0989,4.6628 c -0.13711,-0.004 -0.34195,0.10237 -0.52141,0.28318 -0.34581,0.34841 -0.30538,0.38886 0.1974,0.19741 0.34793,-0.13248 0.54372,-0.32956 0.43511,-0.4382 -0.0272,-0.0272 -0.0654,-0.041 -0.1111,-0.0424 z m 16.205,7.0296 c 0.42021,0 0.59923,0.15512 0.4527,0.39221 -0.13332,0.21572 -0.0496,0.51097 0.18553,0.6563 0.31522,0.19482 0.28374,0.31949 -0.11991,0.47438 -0.30107,0.11554 -0.66712,0.0186 -0.81338,-0.21548 -0.50782,-0.81254 -0.39632,-1.3074 0.29506,-1.3074 z m -18.558,1.1952 c 0.12612,0.005 0.24783,0.0706 0.31885,0.18553 0.11358,0.18378 0.0562,0.42748 -0.12766,0.54104 -0.18378,0.11362 -0.42694,0.0562 -0.54052,-0.12763 -0.11359,-0.18378 -0.0562,-0.42746 0.12763,-0.54105 0.0689,-0.0426 0.146,-0.061 0.2217,-0.0579 z" />
  <g
     style="fill:#c0c0c0"
     id="g112"
     aria-label="2017"
     transform="translate(355.786,-8.88)">
    <path
       inkscape:connector-curvature="0"
       id="path104"
       d="m -290.46,144.31 h -0.57878 v -1.3746 q 0.55294,-0.29456 1.111,-0.44959 0.56328,-0.15503 1.1007,-0.15503 1.2041,0 1.9017,0.58395 0.69763,0.58394 0.69763,1.5865 0,1.1317 -1.5813,2.7078 -0.12403,0.11885 -0.18604,0.18087 l -1.9482,1.9482 h 3.2194 v -0.95085 h 0.60462 v 1.7983 h -4.9764 v -0.56327 l 2.3409,-2.3358 q 0.77515,-0.77514 1.1059,-1.4211 0.33072,-0.65112 0.33072,-1.3643 0,-0.78031 -0.40824,-1.2196 -0.40308,-0.43925 -1.1162,-0.43925 -0.73897,0 -1.142,0.3669 -0.40308,0.36691 -0.47542,1.1007 z" />
    <path
       inkscape:connector-curvature="0"
       id="path106"
       d="m -281.71,149.82 q 0.79065,0 1.1834,-0.86817 0.39274,-0.86816 0.39274,-2.62 0,-1.757 -0.39274,-2.6252 -0.39274,-0.86816 -1.1834,-0.86816 -0.79066,0 -1.1834,0.86816 -0.39274,0.86817 -0.39274,2.6252 0,1.7518 0.39274,2.62 0.39274,0.86817 1.1834,0.86817 z m 0,0.51159 q -1.2557,0 -1.9637,-1.0542 -0.7028,-1.0542 -0.7028,-2.9456 0,-1.8965 0.7028,-2.9507 0.70797,-1.0542 1.9637,-1.0542 1.2609,0 1.9637,1.0542 0.7028,1.0542 0.7028,2.9507 0,1.8914 -0.7028,2.9456 -0.7028,1.0542 -1.9637,1.0542 z" />
    <path
       inkscape:connector-curvature="0"
       id="path108"
       d="m -276.83,150.19 v -0.54777 h 1.3436 v -6.4182 l -1.5555,1.0077 v -0.67696 l 1.881,-1.2196 h 0.71314 v 7.307 h 1.3436 v 0.54777 z" />
    <path
       inkscape:connector-curvature="0"
       id="path110"
       d="m -265.63,143 -3.0179,7.1882 h -0.76998 l 2.8784,-6.8678 h -3.5657 v 0.95085 h -0.60461 v -1.7983 h 5.0798 z" />
  </g>
  <rect
     style="opacity:0.98000004;fill:none"
     id="rect114"
     height="151.16"
     width="151.16"
     y="1.4648437e-05"
     x="9.1552735e-08" />
</svg>
